<?xml version="1.0" standalone="no"?>
<!DOCTYPE svg PUBLIC "-//W3C//DTD SVG 20010904//EN"
 "http://www.w3.org/TR/2001/REC-SVG-20010904/DTD/svg10.dtd">
<svg version="1.0" xmlns="http://www.w3.org/2000/svg"
 width="400.000000pt" height="400.000000pt" viewBox="0 0 400.000000 400.000000"
 preserveAspectRatio="xMidYMid meet">

<g transform="translate(0.000000,400.000000) scale(0.100000,-0.100000)"
fill="#000000" stroke="none">
<path d="M112 3974 c-18 -14 -42 -43 -53 -65 -10 -22 -28 -45 -39 -51 -20 -13
-20 -31 -20 -1845 0 -1028 4 -1833 9 -1833 4 0 20 -18 35 -40 36 -55 112 -129
139 -135 12 -3 840 -4 1840 -3 l1819 3 25 30 c14 17 50 56 79 88 l54 57 0
1833 c0 1742 -1 1833 -18 1843 -9 6 -31 31 -47 55 -16 24 -38 54 -49 67 l-19
22 -1861 0 -1861 0 -33 -26z m678 -69 c30 1 82 2 115 4 91 5 332 -8 361 -19
14 -6 43 -10 65 -10 42 0 70 -11 102 -41 14 -12 29 -16 52 -12 24 4 47 -2 81
-20 27 -14 84 -40 127 -58 43 -17 77 -38 77 -45 0 -8 5 -14 11 -14 5 0 8 -4 5
-9 -8 -12 20 -159 40 -211 11 -28 20 -87 23 -155 6 -101 8 -113 34 -146 31
-41 83 -56 107 -31 7 8 17 67 24 140 13 135 31 186 70 196 29 8 76 53 76 74 0
10 6 24 13 31 9 10 9 15 0 18 -16 6 -5 33 23 59 13 12 20 25 17 28 -4 3 -1 6
6 6 7 0 19 7 28 15 8 9 28 19 44 22 16 3 29 9 29 13 0 5 23 13 50 19 57 12
100 37 100 57 0 10 13 14 44 14 25 0 51 6 58 13 32 32 61 39 128 33 53 -6 75
-3 103 10 32 15 41 16 78 4 35 -12 51 -12 122 3 95 20 131 21 158 6 25 -13
118 -21 226 -19 81 1 82 1 124 -37 41 -37 45 -38 126 -42 97 -4 109 -13 119
-94 6 -44 12 -52 56 -85 27 -19 53 -45 58 -57 13 -35 4 -91 -23 -143 -31 -59
-52 -154 -39 -179 28 -53 24 -97 -19 -208 -42 -112 -67 -242 -55 -289 4 -16
20 -33 44 -45 55 -29 62 -47 61 -167 0 -91 -4 -115 -25 -160 -13 -29 -24 -60
-24 -69 0 -25 -18 -54 -53 -85 -30 -27 -32 -32 -33 -102 -1 -65 -4 -78 -32
-119 -38 -55 -41 -97 -12 -160 26 -58 25 -89 -3 -130 -21 -31 -27 -34 -73 -34
-27 0 -74 11 -105 23 -67 28 -194 29 -194 2 0 -9 17 -20 40 -28 22 -7 46 -19
55 -27 9 -8 41 -25 72 -39 70 -31 128 -81 128 -110 0 -16 -9 -25 -34 -34 -19
-7 -38 -21 -41 -32 -3 -10 -12 -23 -20 -30 -19 -15 -89 17 -150 70 -25 22 -57
40 -69 40 -32 0 -148 44 -198 76 -62 39 -106 42 -141 10 -23 -21 -28 -32 -22
-53 17 -68 17 -83 4 -84 -8 0 -34 -2 -59 -5 -25 -2 -79 -6 -120 -7 -41 -1 -80
-5 -85 -9 -6 -4 -53 -14 -105 -23 -128 -21 -152 -30 -210 -76 -28 -22 -64 -42
-82 -46 -18 -3 -53 -19 -79 -35 -44 -28 -48 -29 -80 -15 -38 16 -74 52 -83 83
-9 28 10 260 24 300 20 57 78 69 140 28 38 -25 41 -26 65 -10 14 9 25 25 25
36 0 34 32 42 122 29 160 -21 172 -22 211 -6 65 28 48 63 -53 110 -30 14 -85
39 -122 56 -50 23 -68 36 -68 50 0 31 25 48 78 54 28 3 72 17 99 30 26 13 62
27 78 31 31 8 143 75 183 110 12 11 22 27 22 36 0 39 -262 5 -385 -51 -22 -10
-62 -23 -90 -29 -27 -6 -63 -16 -80 -21 -117 -39 -182 -50 -253 -43 -44 4 -77
2 -85 -4 -6 -5 -30 -15 -52 -21 -50 -13 -200 2 -224 22 -9 8 -29 17 -44 21
-26 6 -30 3 -44 -33 -9 -22 -24 -43 -35 -46 -10 -4 -31 -23 -48 -43 -16 -20
-72 -68 -125 -107 -149 -110 -142 -125 50 -100 17 3 57 7 90 10 33 4 81 14
107 23 51 17 70 11 50 -16 -30 -42 -35 -61 -23 -88 10 -23 16 -25 54 -21 23 2
62 12 86 21 50 19 79 14 86 -17 3 -12 1 -73 -3 -135 -12 -157 -5 -152 -208
-155 -137 -1 -170 2 -239 21 -77 21 -81 21 -104 4 -14 -10 -29 -31 -34 -48
-11 -34 -35 -64 -52 -64 -6 0 -18 -12 -25 -26 -18 -33 -1 -46 44 -32 17 5 38
12 46 14 9 3 25 -7 38 -25 27 -37 61 -40 102 -11 18 13 57 24 107 30 70 9 81
8 103 -8 47 -35 39 -94 -14 -112 -19 -6 -40 -18 -46 -26 -7 -7 -27 -14 -45
-14 -34 0 -155 -55 -155 -71 0 -5 -16 -26 -35 -48 -35 -38 -43 -72 -26 -100
13 -21 76 -7 113 24 25 21 39 26 67 22 59 -8 133 12 166 44 25 24 40 29 78 29
42 0 47 -3 53 -26 4 -14 4 -53 1 -87 -7 -77 -32 -103 -87 -91 -31 7 -77 8
-157 3 -16 -1 -44 0 -63 1 -19 1 -54 -1 -77 -5 -35 -6 -51 -3 -106 24 -35 17
-67 31 -71 31 -4 0 -21 -10 -38 -21 -30 -22 -31 -22 -86 -4 -40 12 -68 30 -97
60 -31 33 -50 45 -83 50 -23 4 -66 16 -95 27 -58 22 -97 28 -177 31 l-55 2 -3
51 c-3 49 -2 52 40 86 24 19 77 53 119 76 42 23 83 49 90 58 7 9 36 26 65 39
28 13 61 36 73 54 13 18 31 31 44 31 20 0 67 36 67 52 0 4 -15 8 -33 8 -26 0
-36 -6 -45 -24 -7 -17 -22 -25 -51 -30 -22 -3 -75 -24 -118 -45 -43 -22 -98
-45 -123 -52 -25 -8 -60 -28 -79 -46 -19 -18 -41 -33 -50 -34 -102 -7 -148 50
-105 132 18 36 18 37 -49 69 -38 18 -61 39 -85 75 -30 45 -33 55 -28 102 7 61
-2 88 -49 150 -30 40 -34 51 -29 82 9 46 29 88 65 129 16 18 29 39 29 46 0 17
-18 51 -48 94 -21 29 -46 93 -88 225 -8 26 -23 62 -34 80 -11 20 -22 70 -29
135 -16 149 -14 214 8 273 18 47 19 54 4 107 -9 35 -16 116 -18 212 -3 133 -1
161 15 197 21 47 25 182 9 269 -12 63 6 117 57 168 25 25 34 43 34 66 0 32 0
32 39 26 34 -5 44 -2 68 20 31 29 63 44 96 44 12 0 45 12 72 25 46 23 57 24
135 17 47 -4 110 -7 140 -7z m2345 -2475 c22 -11 47 -19 56 -20 8 0 30 -11 47
-24 18 -13 51 -26 74 -30 82 -13 188 -81 188 -120 0 -7 -16 -27 -35 -46 -24
-24 -43 -33 -65 -32 -43 1 -122 29 -163 57 -19 12 -59 30 -88 39 -30 10 -66
21 -81 26 -25 8 -26 7 -17 -18 10 -29 105 -101 198 -150 35 -19 60 -40 72 -63
10 -19 24 -45 31 -58 11 -21 9 -26 -15 -47 -20 -17 -40 -24 -71 -24 -23 0 -47
-5 -53 -11 -8 -8 -14 -5 -23 11 -6 12 -30 29 -52 39 -32 13 -49 31 -82 85 -40
65 -45 69 -101 87 -32 10 -84 21 -114 24 -92 10 -98 13 -125 60 -15 25 -31 45
-36 45 -13 0 -13 27 1 35 6 4 45 16 87 26 65 16 86 17 134 8 65 -13 88 -8 88
19 0 28 27 89 42 95 26 11 64 6 103 -13z m-967 -435 c8 -22 19 -51 25 -65 15
-34 36 -111 37 -132 0 -29 -40 -58 -80 -58 -54 0 -66 20 -74 124 -6 78 -4 94
15 133 28 57 57 56 77 -2z m843 -56 c16 -16 20 -29 15 -50 -7 -37 10 -45 49
-25 28 15 65 7 65 -13 0 -23 -33 -82 -56 -100 -50 -39 -154 -16 -221 49 -42
42 -41 70 4 82 21 5 38 19 48 37 23 46 62 54 96 20z m-573 -91 c30 -46 20 -58
-48 -58 -45 0 -59 4 -64 17 -4 9 -2 21 4 27 5 5 10 18 10 28 0 14 8 18 39 18
33 0 42 -5 59 -32z m-1747 -105 c25 -30 9 -485 -19 -530 -9 -14 -74 -26 -87
-16 -17 13 -64 91 -79 130 -36 94 -70 173 -77 173 -11 0 -20 -49 -29 -160 -9
-115 -15 -140 -36 -140 -29 0 -54 173 -54 372 0 118 3 145 17 160 23 25 94 25
118 -2 17 -18 48 -99 96 -247 22 -71 33 -82 50 -52 8 15 9 60 4 150 -6 111 -5
133 9 154 19 30 66 34 87 8z m207 5 c16 -16 15 -53 -2 -67 -8 -7 -28 -16 -46
-21 -27 -8 -35 -6 -56 15 -30 30 -30 49 -2 69 27 19 89 21 106 4z m2468 -13
c25 -25 26 -28 19 -133 -3 -59 -8 -161 -9 -227 -4 -126 -16 -170 -49 -181 -40
-13 -49 14 -58 183 -16 284 -14 336 13 371 17 20 57 14 84 -13z m-662 -21 c8
-3 20 -21 26 -39 6 -18 30 -49 54 -69 l43 -35 32 20 c42 25 97 25 111 0 13
-26 13 -96 -2 -197 -10 -73 -10 -85 6 -108 23 -37 43 -42 68 -20 20 18 20 25
14 161 -7 135 -6 143 13 162 25 25 68 27 93 4 15 -13 18 -31 17 -112 0 -53 -6
-156 -12 -230 -11 -111 -16 -135 -32 -147 -33 -24 -44 -17 -47 33 -3 42 -7 50
-33 62 -24 11 -37 12 -73 2 -37 -10 -48 -9 -68 4 -44 29 -53 55 -59 175 -6
128 -10 150 -30 150 -21 0 -71 -47 -85 -80 -7 -18 -11 -57 -8 -99 3 -61 7 -74
32 -100 24 -25 27 -33 16 -46 -17 -21 -63 -19 -110 5 -41 21 -53 43 -49 88 4
46 -13 166 -27 194 -19 36 -18 61 5 136 25 80 55 105 105 86z m-1814 -129 c16
-19 16 -107 0 -255 -14 -122 -18 -134 -53 -138 -39 -5 -45 18 -56 207 -10 166
-8 182 25 215 13 14 19 14 43 2 15 -8 33 -22 41 -31z m307 21 c94 -1 102 -11
102 -121 -1 -144 -26 -320 -54 -377 -27 -56 -45 -49 -45 15 0 41 -5 58 -20 72
-18 17 -25 17 -75 5 -64 -15 -92 -3 -119 53 -19 42 -23 270 -5 311 15 32 74
58 114 49 17 -4 62 -7 102 -7z m388 -1 c44 -1 85 -3 92 -3 18 -3 31 -68 28
-137 -2 -33 -9 -127 -17 -209 -12 -123 -18 -151 -33 -162 -27 -20 -45 0 -45
51 0 34 -4 44 -25 55 -21 11 -32 11 -59 2 -46 -17 -80 -15 -107 7 -25 20 -33
65 -45 248 l-7 92 37 37 c32 32 39 35 68 28 18 -4 69 -8 113 -9z m492 -16 l35
-22 -5 -136 c-3 -75 -12 -156 -19 -181 l-14 -45 -121 -2 c-95 -2 -124 1 -133
12 -16 19 -31 145 -20 166 14 24 72 49 118 49 24 0 47 7 56 16 18 18 19 24 7
42 -9 15 -23 16 -106 6 -49 -5 -63 -3 -74 9 -32 40 22 89 109 98 106 12 132
10 167 -12z m381 7 c71 -37 77 -84 14 -109 -32 -13 -42 -13 -71 -1 -46 19 -71
18 -71 -3 0 -30 13 -41 75 -68 86 -38 89 -40 99 -67 14 -39 -2 -98 -35 -131
l-30 -29 -102 7 c-85 5 -105 10 -119 27 -25 28 -22 45 8 65 25 16 28 16 69 -6
54 -29 88 -22 83 17 -2 21 -13 32 -53 50 -143 66 -139 63 -148 117 -10 61 12
111 58 131 41 18 188 18 223 0z m1214 -7 c72 -15 88 -35 88 -114 0 -70 -13
-90 -52 -80 -16 4 -42 -3 -78 -22 -68 -36 -79 -52 -61 -95 25 -63 25 -67 -2
-73 -15 -4 -37 0 -56 9 -39 21 -48 58 -50 205 -2 129 7 154 62 170 44 13 87
13 149 0z m66 -336 c-2 -10 -16 -20 -36 -24 -35 -7 -41 1 -16 25 21 22 56 21
52 -1z m-2258 -183 c0 -5 -7 -10 -15 -10 -8 0 -15 5 -15 10 0 6 7 10 15 10 8
0 15 -4 15 -10z"/>
<path d="M1426 2503 c-11 -29 10 -36 28 -9 16 25 16 26 -3 26 -10 0 -22 -8
-25 -17z"/>
<path d="M2319 2483 c-1 -5 -1 -12 0 -17 1 -5 -2 -12 -6 -15 -5 -3 -16 -18
-26 -33 -17 -27 -17 -28 3 -28 21 0 66 73 55 90 -7 12 -24 13 -26 3z"/>
<path d="M1512 2428 c-7 -7 -12 -18 -12 -25 0 -16 22 -17 38 -1 7 7 12 18 12
25 0 16 -22 17 -38 1z"/>
<path d="M1602 2328 c2 -17 11 -24 31 -26 25 -3 28 0 25 20 -2 17 -11 24 -31
26 -25 3 -28 0 -25 -20z"/>
<path d="M2170 2296 c0 -2 9 -6 20 -9 11 -3 20 -1 20 4 0 5 -9 9 -20 9 -11 0
-20 -2 -20 -4z"/>
<path d="M1667 2223 c-7 -12 6 -38 21 -40 6 -2 12 3 12 11 0 17 -26 40 -33 29z"/>
<path d="M909 1626 c-45 -14 -69 -33 -69 -57 0 -27 35 -42 80 -34 48 8 75 36
66 68 -7 30 -30 37 -77 23z"/>
<path d="M1150 1440 c0 -5 -11 -10 -25 -10 -16 0 -25 -6 -25 -15 0 -8 8 -15
18 -15 23 0 64 29 57 41 -8 12 -25 12 -25 -1z"/>
<path d="M1105 468 c-3 -13 -9 -54 -15 -93 -10 -77 0 -107 40 -120 40 -13 52
19 45 118 -7 106 -11 117 -41 117 -16 0 -25 -7 -29 -22z"/>
<path d="M1524 489 c-13 -15 -20 -44 -26 -102 -8 -97 4 -127 52 -127 39 0 51
24 40 76 -5 21 -10 62 -10 90 0 36 -5 56 -18 68 -18 15 -20 15 -38 -5z"/>
<path d="M1912 348 c-18 -18 -14 -56 8 -78 25 -25 45 -25 71 1 20 20 19 48 -3
77 -13 15 -60 16 -76 0z"/>
<path d="M3586 498 c-22 -32 -20 -64 6 -82 62 -44 117 23 69 82 -24 28 -55 28
-75 0z"/>
</g>
</svg>
