<?xml version="1.0" standalone="no"?>
<!DOCTYPE svg PUBLIC "-//W3C//DTD SVG 20010904//EN"
 "http://www.w3.org/TR/2001/REC-SVG-20010904/DTD/svg10.dtd">
<svg version="1.0" xmlns="http://www.w3.org/2000/svg"
 width="1000.000000pt" height="1000.000000pt" viewBox="0 0 1000.000000 1000.000000"
 preserveAspectRatio="xMidYMid meet">
<metadata>
Created by potrace 1.14, written by Peter Selinger 2001-2017
</metadata>
<g transform="translate(0.000000,1000.000000) scale(0.100000,-0.100000)"
fill="#000000" stroke="none">
<path d="M0 7051 c0 -2344 3 -2949 13 -2948 43 1 47 -3 47 -47 0 -46 13 -68
24 -40 3 9 6 31 6 50 0 19 5 34 10 34 6 0 10 -43 10 -109 0 -71 4 -112 11
-117 17 -10 161 -5 175 7 13 11 27 81 25 124 -2 26 3 32 32 43 18 7 40 12 49
12 19 0 116 28 140 41 27 14 199 13 208 -1 13 -21 18 1 25 110 4 58 9 108 12
113 7 11 53 8 53 -4 0 -5 -4 -8 -9 -5 -19 12 -37 -5 -35 -32 1 -15 3 -35 3
-44 1 -21 31 -13 31 8 0 9 12 14 34 14 26 0 35 -5 40 -22 5 -19 8 -21 16 -8 6
10 10 11 10 3 0 -7 5 -13 11 -13 6 0 9 7 5 15 -4 11 1 15 19 15 25 0 33 -14
15 -25 -13 -8 -13 -45 1 -45 25 0 47 20 42 40 -3 11 -1 20 5 20 13 0 33 -25
26 -33 -10 -9 17 -68 27 -61 5 3 4 14 -2 26 -6 11 -7 18 -1 14 6 -3 13 17 17
49 11 90 23 63 22 -47 -2 -93 0 -103 17 -106 27 -6 35 7 40 70 2 32 7 61 10
66 13 22 127 34 298 30 97 -1 180 -6 183 -10 4 -4 4 -15 0 -25 -8 -17 -8 -17
-12 0 -4 15 -11 17 -36 11 -42 -8 -41 -8 -22 -38 18 -28 30 -32 40 -16 3 6 15
10 25 10 13 0 17 5 14 14 -7 18 22 25 60 14 21 -5 34 -3 46 7 9 8 22 15 28 15
7 0 12 17 12 44 0 25 4 48 10 51 5 3 10 -1 10 -9 0 -13 12 -16 55 -16 63 0
157 18 166 32 4 7 13 6 26 0 10 -6 79 -11 152 -11 87 0 138 -5 147 -12 8 -7
12 -14 9 -17 -2 -3 -11 1 -20 8 -10 8 -15 9 -15 2 0 -6 9 -16 19 -22 16 -8 21
-6 26 10 3 11 4 29 0 39 -10 33 14 34 46 2 17 -17 35 -31 40 -31 16 0 9 17
-13 33 -22 15 -21 16 30 16 28 1 52 -3 52 -9 0 -5 5 -10 10 -10 16 0 12 48 -6
76 -15 22 -15 24 0 18 9 -3 16 -9 16 -13 0 -3 11 -19 24 -34 21 -25 30 -27 80
-26 31 1 56 5 56 8 0 4 -9 24 -21 45 -11 21 -18 40 -16 43 5 4 17 -11 67 -81
29 -41 55 -48 47 -13 -4 12 -9 42 -12 67 l-7 45 31 -54 c17 -30 31 -60 31 -68
0 -7 9 -13 20 -13 11 0 25 -11 33 -26 l14 -27 6 31 c6 29 8 30 48 25 32 -5 44
-2 51 11 14 24 23 20 37 -20 8 -22 18 -34 26 -31 7 3 17 1 23 -5 6 -6 18 -8
26 -5 18 7 21 38 6 53 -7 7 12 10 55 11 73 2 84 -11 39 -46 l-26 -21 23 -19
c31 -25 37 -20 32 24 -4 38 14 48 37 20 10 -12 10 -19 2 -27 -14 -14 -17 -122
-4 -114 5 3 9 22 10 42 1 20 6 42 12 49 7 9 7 20 0 36 -21 48 -69 127 -94 154
-30 32 -35 57 -7 31 11 -10 24 -15 30 -12 5 4 15 -3 21 -14 6 -11 7 -20 3 -20
-4 0 7 -15 23 -32 17 -18 36 -45 44 -60 16 -34 51 -58 76 -53 10 2 24 4 31 4
6 1 14 9 16 19 4 16 5 16 6 -1 1 -17 3 -17 16 -3 12 12 22 13 41 6 14 -6 41
-10 60 -10 32 0 34 1 20 16 -9 8 -16 21 -16 27 0 7 -7 24 -14 40 -8 15 -11 27
-7 27 13 0 76 -74 95 -112 21 -41 63 -85 72 -75 17 16 -10 77 -58 133 -93 108
-143 167 -163 195 -11 15 -42 55 -68 90 -70 91 11 0 106 -120 16 -20 69 -80
119 -133 l91 -98 64 6 c51 4 63 2 63 -10 0 -8 -4 -17 -9 -21 -6 -3 -9 -13 -9
-23 0 -9 -3 -25 -7 -34 -11 -28 10 -21 23 7 6 14 19 25 28 25 12 0 15 6 10 23
-4 12 -8 27 -10 34 -1 7 -5 16 -9 19 -4 4 -7 15 -7 23 0 9 -14 27 -30 41 -17
14 -30 30 -30 36 0 5 -13 23 -30 39 -16 16 -30 35 -30 44 0 8 33 -21 73 -65
107 -118 137 -148 137 -140 0 4 7 0 16 -8 10 -11 21 -13 32 -8 9 5 55 7 101 5
l85 -4 -20 23 c-10 12 -30 34 -44 49 -14 14 -39 43 -55 64 -17 21 -41 49 -55
61 -18 17 -21 24 -9 24 8 0 53 -41 99 -92 47 -50 95 -100 108 -112 12 -11 22
-31 22 -44 0 -14 9 -33 21 -43 12 -10 18 -23 14 -30 -6 -8 -10 -8 -16 2 -7 11
-9 11 -9 -1 1 -8 7 -24 15 -34 11 -15 15 -16 19 -5 2 8 9 29 15 48 10 30 9 37
-11 60 -44 48 -54 61 -173 216 -154 200 -149 194 -162 183 -10 -8 -13 -5 -13
10 0 12 -5 24 -12 28 -8 5 -9 2 -5 -9 4 -11 1 -17 -8 -17 -17 0 -20 -26 -5
-35 6 -3 10 -12 10 -18 -1 -8 -5 -6 -13 3 -7 8 -31 30 -55 49 -33 26 -49 32
-70 28 -38 -8 -57 5 -32 21 12 7 20 8 20 2 0 -5 7 -10 15 -10 8 0 15 2 15 5 0
12 -36 43 -57 49 -13 4 -23 12 -23 17 0 5 -7 9 -15 9 -8 0 -15 4 -15 9 0 7
-104 8 -120 1 -3 -1 -8 -2 -12 -1 -14 2 -8 -15 17 -49 30 -41 32 -54 5 -40
-11 6 -20 15 -20 21 0 12 -69 79 -81 79 -4 0 -14 12 -22 28 -7 15 -19 26 -26
24 -9 -2 -11 3 -7 14 4 12 2 15 -9 10 -8 -3 -14 0 -12 7 1 7 -14 13 -40 15
-48 4 -59 22 -14 22 16 0 31 6 35 15 7 19 26 20 26 1 0 -23 14 -26 43 -11 16
8 29 10 32 4 9 -14 41 -11 55 6 18 22 29 19 36 -11 5 -17 10 -22 17 -15 7 7 6
15 -3 26 -10 12 -10 15 4 15 10 0 15 -4 11 -9 -3 -5 -1 -12 5 -16 13 -8 13 6
-1 42 l-10 28 23 -22 c16 -15 34 -21 60 -20 25 2 40 -3 43 -12 3 -8 8 -11 11
-9 6 7 -29 72 -65 117 -124 162 -190 251 -185 251 7 0 54 -51 54 -59 0 -3 10
-17 23 -31 12 -14 42 -52 67 -85 113 -153 165 -198 185 -165 3 6 19 10 35 10
38 0 46 15 21 42 -12 12 -19 24 -16 27 3 2 23 -15 45 -38 27 -28 46 -41 56
-37 9 3 18 6 20 6 3 0 2 4 -1 10 -6 9 16 17 65 22 l25 3 -25 23 c-13 12 -19
22 -13 22 7 0 20 -11 31 -25 12 -15 30 -25 43 -24 13 0 19 3 13 5 -9 4 -8 20
3 61 10 41 11 59 3 67 -8 8 -13 7 -20 -4 -7 -12 -13 -9 -30 12 -18 23 -25 26
-46 17 -22 -8 -29 -5 -47 18 -12 16 -33 38 -46 51 -13 12 -20 22 -15 22 13 0
64 -49 64 -60 0 -10 33 -12 120 -9 150 6 211 3 219 -10 6 -8 16 -11 30 -6 14
4 29 1 39 -8 24 -20 62 -28 84 -16 13 7 23 7 31 1 7 -6 50 -8 97 -6 47 2 123
4 170 4 93 0 160 14 160 33 0 7 8 -3 17 -21 19 -38 18 -38 27 11 5 29 4 37 -7
37 -8 0 -18 7 -21 16 -3 8 -10 13 -14 10 -5 -3 -16 4 -25 14 -9 11 -13 21 -9
23 10 6 49 -9 57 -22 4 -7 16 -3 34 10 27 20 28 23 15 48 -18 34 -18 34 15 54
23 14 31 14 46 3 13 -9 15 -15 7 -20 -19 -12 -13 -29 8 -23 11 3 25 -2 32 -11
10 -12 10 -14 0 -8 -7 4 -21 4 -32 1 -17 -6 -18 -8 -6 -21 19 -18 30 -18 46 1
17 20 27 19 47 -4 12 -15 21 -17 34 -10 11 5 20 6 24 0 7 -12 160 -13 201 -2
24 6 28 13 26 33 -2 26 -2 26 38 16 30 -8 40 -15 40 -30 0 -16 4 -19 23 -14
36 11 41 13 69 20 32 9 68 -1 68 -19 0 -17 25 -26 38 -13 7 7 26 7 62 -2 29
-7 74 -10 100 -7 26 3 51 3 54 -1 4 -3 23 -5 42 -3 27 2 34 -1 35 -16 0 -10 3
-13 5 -6 6 13 34 6 34 -9 0 -5 -7 -16 -15 -25 -18 -18 -11 -33 16 -33 10 0 19
-4 19 -10 0 -5 8 -10 19 -10 10 0 24 -7 32 -16 9 -11 22 -14 43 -10 103 19
115 19 122 -8 8 -31 -1 -46 -29 -46 -12 0 -17 -4 -11 -8 22 -20 126 -42 219
-47 55 -3 112 -8 127 -10 18 -4 31 1 40 13 21 30 35 33 34 9 -1 -17 4 -21 22
-19 13 2 31 -3 40 -11 20 -17 54 -19 64 -3 5 7 8 6 8 -4 0 -24 61 85 213 383
22 43 42 76 44 73 5 -4 -25 -69 -154 -333 -36 -73 -63 -139 -60 -145 3 -9 29
-13 83 -13 73 0 79 -2 82 -21 2 -13 -8 -33 -22 -49 l-26 -28 0 27 c0 14 -1 26
-2 26 -2 0 -26 -6 -55 -14 -35 -10 -54 -11 -62 -3 -7 7 -19 0 -41 -23 -16 -17
-30 -35 -30 -39 0 -9 52 -31 61 -26 4 3 22 7 39 9 31 3 32 2 26 -26 -3 -18 -2
-27 4 -23 6 3 10 17 10 30 0 18 4 23 15 19 19 -8 19 -53 0 -60 -8 -4 -15 -10
-15 -14 0 -16 -31 -82 -37 -77 -3 4 -2 14 3 24 4 10 8 26 9 37 2 17 -3 18 -88
12 -50 -4 -97 -12 -104 -17 -7 -6 -17 -8 -23 -4 -5 3 -16 3 -22 -2 -7 -4 -25
-6 -40 -4 -14 1 -29 -3 -33 -9 -3 -5 -10 -8 -13 -6 -20 12 -95 16 -107 6 -8
-6 -24 -10 -37 -9 -28 4 -58 -16 -83 -54 -10 -15 -84 -94 -165 -175 -144 -146
-174 -187 -143 -199 8 -3 18 0 22 6 5 7 30 12 62 12 30 0 75 2 102 5 31 4 47
2 47 -5 0 -6 9 -11 20 -11 11 0 30 -6 41 -12 18 -11 23 -10 43 15 27 34 40 35
32 1 -4 -14 -3 -31 3 -37 5 -7 11 -25 13 -41 2 -24 8 -30 33 -33 16 -3 35 -9
42 -15 10 -8 13 -5 13 13 0 13 1 35 4 49 2 14 5 31 5 39 1 8 8 11 20 8 10 -2
26 0 35 5 10 6 22 6 29 1 7 -5 24 -10 39 -11 24 -2 31 6 60 66 18 37 38 70 43
74 16 12 17 -18 2 -49 -22 -42 -25 -88 -7 -89 29 -2 31 -4 20 -24 -8 -16 -8
-18 4 -14 9 3 18 14 21 25 4 10 11 19 16 19 5 0 14 10 19 23 5 12 20 38 32 58
78 125 118 192 118 197 0 3 8 14 18 25 16 18 82 129 101 172 5 11 26 45 46 75
58 85 32 19 -39 -100 -35 -58 -77 -130 -94 -160 -46 -83 -66 -119 -107 -190
-75 -129 -97 -171 -91 -177 3 -4 6 0 6 8 1 38 33 -63 35 -111 4 -82 5 -88 16
-61 7 18 12 21 23 12 11 -9 15 -5 20 20 4 19 1 38 -6 46 -8 10 -8 17 -1 21 6
4 13 28 15 54 7 66 32 101 69 96 16 -3 29 -1 29 3 0 4 18 5 40 2 36 -5 40 -3
51 23 13 34 36 111 50 172 6 23 15 42 20 42 5 0 5 -10 0 -22 -5 -13 -12 -50
-16 -83 -4 -33 -13 -76 -21 -94 -21 -51 -13 -62 38 -56 84 12 88 14 89 43 1
20 2 22 6 7 3 -11 9 -24 14 -30 14 -14 11 -22 -12 -28 -35 -9 -17 -32 22 -29
43 5 45 7 31 36 -9 21 -8 23 9 19 10 -3 19 -9 19 -13 0 -4 17 -6 38 -3 35 6
94 7 156 3 21 -1 31 -8 39 -31 15 -38 50 -39 74 -1 9 15 18 29 19 31 2 2 18 6
36 10 30 7 34 5 44 -23 11 -28 12 -29 19 -11 4 11 11 29 15 40 10 24 24 67 25
78 0 4 5 7 10 7 15 1 25 -60 14 -87 -13 -36 -11 -40 7 -15 10 14 24 22 37 20
12 -1 28 1 35 5 6 5 12 5 12 0 0 -4 28 -8 63 -8 57 1 62 2 61 23 0 12 3 22 7
22 4 0 10 19 14 42 4 23 11 49 15 58 5 8 13 31 19 50 10 34 11 34 5 -10 -12
-93 -22 -215 -18 -219 2 -2 10 1 17 7 19 16 59 21 80 10 11 -6 17 -5 17 3 0 8
4 9 13 0 8 -6 17 -7 22 -3 4 4 5 -3 2 -16 -7 -31 13 -80 37 -86 33 -9 56 11
56 49 0 19 5 35 10 35 6 0 10 -3 10 -7 0 -5 16 -9 36 -11 21 -1 33 2 29 8 -4
6 12 9 42 9 l48 -2 -40 -7 c-39 -6 -39 -6 -12 -14 15 -5 36 -6 46 -3 22 5 61
-26 61 -48 0 -8 7 -15 15 -15 9 0 20 20 30 53 9 28 23 63 31 77 14 24 15 21 9
-38 -7 -70 3 -92 40 -92 12 0 28 7 35 15 12 14 15 14 30 0 14 -13 19 -13 23
-3 4 10 8 10 16 -2 7 -10 11 -11 11 -2 0 7 14 13 33 13 30 2 30 2 5 6 -31 5
-39 23 -10 23 39 0 62 -13 68 -39 10 -38 15 -45 25 -30 6 10 9 11 9 2 0 -7 5
-13 11 -13 6 0 9 6 6 13 -2 7 4 24 16 37 l20 25 -6 -30 c-9 -50 8 -67 61 -65
89 5 112 1 106 -15 -4 -8 -2 -15 4 -15 5 0 12 9 15 20 7 27 25 25 39 -5 6 -14
14 -25 18 -25 4 0 11 -26 16 -57 6 -40 9 -50 12 -30 4 32 11 33 44 7 60 -47
98 -43 98 10 1 14 6 35 13 46 10 18 18 21 52 17 22 -3 86 -6 143 -7 57 -1 102
-5 102 -11 0 -5 5 -4 12 3 10 10 15 7 24 -10 l12 -21 6 21 c5 13 -3 58 -18
111 -28 96 -34 141 -15 109 5 -10 25 -63 44 -119 38 -114 33 -104 62 -113 20
-7 22 -4 18 21 -2 15 -10 71 -16 123 -10 91 -21 142 -55 257 -9 29 -14 58 -11
65 4 12 21 -41 46 -147 13 -54 49 -149 88 -232 13 -29 30 -71 37 -95 12 -38
14 -9 15 253 1 233 -2 303 -13 330 -7 19 -17 45 -20 59 -5 19 -2 16 13 -10
l20 -35 1 2708 0 2707 -5000 0 -5000 0 0 -2949z m2278 1532 l51 -77 -34 -42
c-34 -41 -34 -43 -17 -64 l17 -22 32 40 c47 59 121 92 202 91 125 -1 194 -49
283 -199 l53 -90 5 142 5 143 77 3 77 3 41 -80 c22 -44 40 -87 40 -96 0 -8 7
-15 15 -15 12 0 15 17 15 95 l0 95 71 0 70 0 32 -67 c31 -66 32 -72 37 -242
l5 -174 136 239 137 239 108 0 108 0 23 -74 c22 -70 23 -86 21 -340 l-3 -266
-49 -3 c-34 -2 -53 2 -66 13 -17 15 -19 15 -22 -2 -3 -15 -7 -14 -23 10 -15
24 -16 30 -4 37 11 7 10 10 -4 16 -9 3 -17 12 -17 20 0 24 -19 15 -85 -41
l-65 -55 -84 0 c-75 0 -85 2 -99 23 l-16 22 0 -22 c-1 -22 -5 -23 -70 -23
l-69 0 -33 58 c-17 31 -35 77 -38 102 -5 32 -11 44 -21 42 -12 -3 -13 -1 -2 9
6 7 12 35 12 61 0 41 -3 48 -20 48 -11 0 -20 4 -20 8 0 4 -12 9 -26 10 l-26 2
6 -69 c4 -38 11 -95 16 -127 6 -33 10 -62 10 -65 0 -3 6 -6 14 -6 8 0 12 6 9
14 -3 7 0 13 6 13 8 0 11 -16 9 -47 l-3 -48 -73 -3 -72 -3 -41 66 c-23 36 -45
65 -50 65 -4 0 -20 -16 -35 -35 -58 -77 -167 -111 -273 -85 -60 14 -122 66
-191 159 -25 33 -48 60 -52 61 -5 0 -8 -51 -8 -114 l0 -113 -152 -107 -153
-106 -57 59 c-32 33 -58 67 -58 76 0 9 16 77 36 152 19 74 33 137 31 140 -3 2
-42 -55 -87 -126 -45 -72 -93 -142 -106 -156 -23 -25 -51 -35 -38 -13 5 7 3 8
-6 3 -10 -6 -9 -11 4 -21 11 -7 15 -18 11 -25 -6 -9 1 -10 26 -5 32 6 39 2 94
-54 32 -33 57 -61 54 -63 -4 -5 -348 -217 -539 -334 -58 -35 -154 -95 -215
-133 -60 -38 -116 -69 -124 -70 -18 0 -151 83 -151 95 0 6 35 55 78 110 43 55
170 219 282 365 112 146 251 326 309 400 57 74 108 140 112 146 5 6 -5 27 -26
51 -19 23 -35 44 -35 47 0 3 64 47 142 98 79 51 215 141 303 200 88 58 165
107 171 107 6 1 34 -34 62 -76z m5659 -24 c79 -52 217 -143 307 -202 l165
-108 -21 -37 c-12 -20 -34 -62 -51 -92 -16 -30 -38 -68 -47 -85 -42 -71 -80
-145 -80 -152 0 -5 100 -90 221 -188 122 -99 290 -235 373 -303 83 -68 188
-153 233 -190 46 -37 83 -70 83 -74 0 -4 -34 -28 -75 -54 l-76 -47 -52 33
c-29 18 -167 103 -307 190 -140 87 -340 210 -445 275 -104 65 -211 131 -237
147 -27 16 -48 33 -48 36 0 16 99 306 100 293 0 -19 60 75 60 94 0 8 5 15 10
15 6 0 10 6 10 14 0 7 12 35 26 60 28 49 28 68 0 41 -14 -14 -16 -15 -16 -1 0
9 -6 13 -15 10 -20 -8 -33 45 -14 57 7 4 10 11 6 15 -4 4 -15 0 -25 -9 -16
-15 -18 -14 -31 13 -7 17 -19 30 -27 30 -8 0 -14 6 -12 13 3 15 -44 127 -54
127 -5 0 -8 -26 -8 -58 0 -43 -5 -63 -19 -79 -19 -20 -19 -20 2 -39 12 -10 25
-18 30 -16 4 1 7 -4 7 -12 0 -10 7 -13 21 -11 17 3 19 1 9 -10 -13 -16 3 -30
22 -19 6 4 8 3 5 -3 -4 -6 0 -32 8 -59 l14 -48 -30 34 c-16 19 -51 61 -77 92
-34 42 -50 54 -59 47 -8 -8 -16 -5 -25 10 -7 12 -16 21 -20 21 -13 0 23 -80
69 -154 40 -66 43 -75 43 -142 l0 -73 -56 -65 c-30 -36 -65 -68 -77 -71 -12
-3 -92 -3 -177 -1 -85 3 -165 5 -177 5 -19 1 -22 7 -25 46 l-3 45 -35 -30
c-19 -16 -39 -30 -44 -30 -5 0 -3 -7 4 -15 7 -8 9 -15 4 -16 -58 -4 -377 1
-382 6 -4 3 -6 26 -6 51 1 24 -2 44 -6 44 -4 0 -19 -22 -34 -49 -15 -28 -34
-52 -44 -55 -9 -2 -48 -4 -87 -3 -60 2 -70 5 -69 20 1 9 -2 14 -7 11 -5 -3 -9
-1 -9 4 0 5 9 12 20 15 11 3 20 10 20 17 0 6 -4 8 -10 5 -6 -3 -7 1 -4 9 3 9
10 13 15 10 5 -3 7 8 5 23 -19 151 -35 190 -36 87 0 -69 -14 -134 -29 -134 -4
0 -15 -16 -24 -36 l-17 -35 -72 3 -72 3 2 155 c0 85 -2 184 -6 220 l-7 65 -33
-75 c-60 -140 -78 -158 -152 -163 -42 -2 -45 -4 -48 -32 -2 -16 -15 -63 -29
-102 l-26 -73 -74 0 -74 0 2 148 c1 99 7 158 16 181 12 29 22 173 23 334 l0
29 153 -4 c139 -3 155 -5 184 -26 17 -12 40 -40 49 -62 10 -21 21 -37 24 -35
4 3 18 32 30 66 l23 61 151 -4 c138 -3 154 -5 183 -26 17 -12 40 -40 50 -62
10 -22 21 -40 24 -40 3 0 12 12 20 28 7 15 24 44 36 65 l23 37 200 0 199 0 3
-57 3 -57 38 57 37 57 98 0 97 1 50 74 c28 41 55 73 60 71 6 -2 74 -46 152
-97z m-3861 -129 c15 -44 30 -77 33 -74 3 3 15 37 26 77 l20 72 73 3 c87 3 85
10 41 -150 -17 -62 -33 -124 -35 -138 -3 -14 -7 -32 -9 -41 -11 -35 -14 -149
-5 -149 6 0 9 3 9 8 -1 4 -1 9 1 12 1 3 3 14 5 25 6 28 34 93 35 79 0 -21 -80
-318 -89 -327 -5 -5 -26 -7 -47 -5 -38 3 -40 5 -57 58 -29 86 -177 602 -177
617 0 10 20 13 74 13 l74 0 28 -80z m680 68 c9 -14 16 -611 8 -650 l-6 -28
-181 0 c-100 0 -187 4 -193 8 -24 16 -34 131 -34 404 l0 278 199 0 c143 0 202
-3 207 -12z m762 -65 l-3 -78 -123 0 c-110 0 -122 -2 -122 -17 0 -16 13 -18
124 -18 l125 0 -1 -175 c0 -96 -4 -192 -10 -212 -5 -21 -11 -50 -12 -66 -2
-15 -6 -30 -10 -35 -4 -4 -91 -8 -192 -10 l-184 -2 0 345 0 345 205 0 206 0
-3 -77z m242 17 c17 -33 32 -60 34 -60 2 0 13 27 25 60 l22 60 70 0 c38 0 69
-4 69 -9 0 -11 -24 -70 -62 -151 -48 -103 -47 -118 12 -264 l52 -128 -19 -67
-19 -66 -58 -3 c-63 -3 -81 5 -90 44 -5 18 -1 30 14 42 23 20 32 69 11 64 -8
-2 -11 3 -8 11 3 8 0 37 -7 63 -8 28 -16 43 -19 34 -3 -8 -13 -37 -23 -65 -10
-27 -20 -52 -23 -55 -4 -3 -7 -18 -7 -35 -1 -16 -8 -47 -17 -67 l-16 -38 -70
0 c-52 0 -71 4 -71 13 0 49 27 140 64 214 l44 88 -57 110 -57 110 12 75 c7 41
13 76 13 78 1 1 35 2 76 2 l75 0 30 -60z m-1443 -117 c-3 -10 -5 -2 -5 17 0
19 2 27 5 18 2 -10 2 -26 0 -35z m2976 -2508 c-3 -9 -8 -14 -10 -11 -3 3 -2 9
2 15 9 16 15 13 8 -4z m-4884 -265 c-1 -13 -1 -13 -6 0 -3 8 -16 38 -28 65
-12 28 -25 66 -29 85 -4 19 9 -3 28 -50 19 -47 35 -92 35 -100z m4714 -105
c-3 -9 -8 -14 -10 -11 -3 3 -2 9 2 15 9 16 15 13 8 -4z m402 -86 c-9 -17 -19
-29 -22 -26 -5 5 25 57 33 57 3 0 -3 -14 -11 -31z m-4015 -44 c0 -3 -11 7 -25
23 -14 17 -25 33 -25 37 0 3 11 -7 25 -23 14 -17 25 -33 25 -37z m-470 -112
c0 -7 5 -13 10 -13 6 0 10 -5 10 -11 0 -8 -5 -8 -15 1 -8 7 -15 18 -15 25 0 6
-9 20 -20 30 -20 18 -70 97 -70 112 0 4 23 -24 50 -62 28 -38 50 -75 50 -82z
m1758 71 c56 -10 102 -22 102 -25 0 -22 -159 -16 -173 7 -4 8 -23 14 -41 14
-36 0 -52 20 -33 39 8 8 15 7 26 -3 9 -8 62 -22 119 -32z m2682 6 c-6 -11 -13
-20 -16 -20 -2 0 0 9 6 20 6 11 13 20 16 20 2 0 0 -9 -6 -20z m-4039 -27 c13
-16 12 -17 -3 -4 -17 13 -22 21 -14 21 2 0 10 -8 17 -17z m3431 -45 c-7 -7
-12 -8 -12 -2 0 14 12 26 19 19 2 -3 -1 -11 -7 -17z m568 -2 c0 -2 -8 -10 -17
-17 -16 -13 -17 -12 -4 4 13 16 21 21 21 13z m-3926 -52 c3 -8 2 -12 -4 -9 -6
3 -10 10 -10 16 0 14 7 11 14 -7z m3884 -14 c-7 -10 -14 -18 -15 -16 -6 6 9
36 18 36 5 0 4 -9 -3 -20z m-3302 -47 c-7 -7 -26 7 -26 19 0 6 6 6 15 -2 9 -7
13 -15 11 -17z m3276 -5 c-7 -30 -33 -70 -40 -63 -7 7 32 85 43 85 2 0 1 -10
-3 -22z m-4214 -63 c-3 -3 -13 7 -23 22 l-17 28 23 -22 c12 -12 20 -25 17 -28z
m-1204 -11 c3 -8 2 -12 -4 -9 -6 3 -10 10 -10 16 0 14 7 11 14 -7z m-247 -46
c-3 -7 -5 -2 -5 12 0 14 2 19 5 13 2 -7 2 -19 0 -25z m5595 4 c-7 -2 -12 -10
-12 -18 0 -18 -53 -114 -63 -114 -11 0 3 51 19 75 8 11 24 35 36 54 14 22 24
29 26 21 3 -8 0 -16 -6 -18z m-5335 -4 c-3 -8 -6 -5 -6 6 -1 11 2 17 5 13 3
-3 4 -12 1 -19z m1338 -122 c19 -20 85 -114 85 -122 0 -12 -27 -1 -38 16 -7
11 -18 20 -25 20 -18 0 -109 134 -122 180 -6 19 2 14 36 -25 24 -27 53 -58 64
-69z m3622 92 c-3 -8 -6 -5 -6 6 -1 11 2 17 5 13 3 -3 4 -12 1 -19z m-4940
-20 c-3 -8 -6 -5 -6 6 -1 11 2 17 5 13 3 -3 4 -12 1 -19z m5353 18 c0 -3 -4
-8 -10 -11 -5 -3 -10 -1 -10 4 0 6 5 11 10 11 6 0 10 -2 10 -4z m-5623 -58
c-3 -7 -5 -2 -5 12 0 14 2 19 5 13 2 -7 2 -19 0 -25z m291 -9 c-3 -8 -7 -3
-11 10 -4 17 -3 21 5 13 5 -5 8 -16 6 -23z m6202 -170 c-26 -137 -30 -152 -36
-146 -6 5 3 58 33 190 23 105 25 74 3 -44z m-6470 66 c0 -14 -2 -25 -4 -25 -2
0 -6 11 -8 25 -3 14 -1 25 3 25 5 0 9 -11 9 -25z m5877 -17 c-3 -8 -6 -5 -6 6
-1 11 2 17 5 13 3 -3 4 -12 1 -19z m-5233 -4 c3 -8 2 -12 -4 -9 -6 3 -10 10
-10 16 0 14 7 11 14 -7z m4893 -26 c-3 -7 -5 -2 -5 12 0 14 2 19 5 13 2 -7 2
-19 0 -25z m-3543 4 c7 -12 -32 -30 -64 -30 -14 0 -19 2 -12 5 6 3 9 10 5 16
-4 6 0 8 10 4 9 -3 19 -2 22 3 8 12 32 13 39 2z m-1987 -64 c-3 -7 -5 -2 -5
12 0 14 2 19 5 13 2 -7 2 -19 0 -25z m4922 0 c0 -7 -4 -22 -9 -33 -7 -17 -9
-15 -9 13 -1 17 4 32 9 32 6 0 10 -6 9 -12z m61 -8 c-6 -11 -15 -20 -20 -20
-16 0 -11 18 8 29 24 14 24 14 12 -9z m-4286 -26 c3 -8 2 -12 -4 -9 -6 3 -10
10 -10 16 0 14 7 11 14 -7z m6619 -129 c4 -51 3 -62 -4 -40 -5 17 -11 66 -14
110 -6 98 9 39 18 -70z m-1816 103 c-3 -7 -5 -2 -5 12 0 14 2 19 5 13 2 -7 2
-19 0 -25z m-718 -4 c-9 -11 -15 -12 -23 -4 -8 8 -7 13 4 20 20 12 33 1 19
-16z m1038 4 c-3 -8 -6 -5 -6 6 -1 11 2 17 5 13 3 -3 4 -12 1 -19z m-5810 -10
c-3 -8 -6 -5 -6 6 -1 11 2 17 5 13 3 -3 4 -12 1 -19z m4820 -10 c-3 -7 -5 -2
-5 12 0 14 2 19 5 13 2 -7 2 -19 0 -25z m-4098 -14 c29 -48 26 -55 -4 -14 -23
31 -31 50 -21 50 2 0 13 -16 25 -36z m4216 16 c-3 -5 -11 -10 -16 -10 -6 0 -7
5 -4 10 3 6 11 10 16 10 6 0 7 -4 4 -10z m-2954 -17 c13 -16 12 -17 -3 -4 -17
13 -22 21 -14 21 2 0 10 -8 17 -17z m5926 -5 c-3 -8 -6 -5 -6 6 -1 11 2 17 5
13 3 -3 4 -12 1 -19z m-7899 -103 l-1 -40 -8 45 c-4 25 -7 61 -7 80 l0 35 9
-40 c4 -22 8 -58 7 -80z m2252 84 c7 -11 9 -24 5 -27 -7 -7 -35 25 -35 40 0
16 19 8 30 -13z m2598 14 c-10 -2 -18 -12 -18 -20 0 -9 -3 -14 -6 -10 -12 11
5 37 23 36 17 -1 17 -2 1 -6z m-3099 -66 c0 -7 -5 -2 -11 11 -6 12 -14 22 -18
22 -5 0 -11 8 -14 18 -4 10 4 6 19 -11 14 -15 25 -33 24 -40z m3361 44 c0 -6
-4 -13 -10 -16 -5 -3 -10 1 -10 9 0 9 5 16 10 16 6 0 10 -4 10 -9z m664 -25
c-3 -9 -10 -16 -15 -16 -5 0 -4 9 3 20 14 22 21 20 12 -4z m623 -8 c-3 -7 -5
-2 -5 12 0 14 2 19 5 13 2 -7 2 -19 0 -25z m-4923 -4 c3 -8 2 -12 -4 -9 -6 3
-10 10 -10 16 0 14 7 11 14 -7z m6456 -22 c0 -15 -2 -15 -10 -2 -13 20 -13 33
0 25 6 -3 10 -14 10 -23z m-7157 -24 c6 -22 5 -22 -8 -4 -17 22 -20 40 -6 32
5 -3 11 -16 14 -28z m1015 2 c7 -11 8 -20 2 -20 -5 0 -14 9 -20 20 -6 11 -7
20 -3 20 5 0 14 -9 21 -20z m3948 -37 c-5 -46 -44 -153 -56 -153 -4 0 -10 7
-14 15 -3 8 -1 15 4 15 6 0 10 6 10 13 0 12 53 147 58 147 1 0 1 -17 -2 -37z
m2201 5 c-3 -8 -6 -5 -6 6 -1 11 2 17 5 13 3 -3 4 -12 1 -19z m-2877 -3 c0 -8
-4 -15 -10 -15 -5 0 -10 7 -10 15 0 8 5 15 10 15 6 0 10 -7 10 -15z m-5053
-77 c-2 -13 -4 -5 -4 17 -1 22 1 32 4 23 2 -10 2 -28 0 -40z m6945 30 c-7 -7
-12 -8 -12 -2 0 14 12 26 19 19 2 -3 -1 -11 -7 -17z m-5917 -18 c3 -5 1 -10
-4 -10 -6 0 -11 5 -11 10 0 6 2 10 4 10 3 0 8 -4 11 -10z m160 0 c3 -6 -1 -7
-9 -4 -18 7 -21 14 -7 14 6 0 13 -4 16 -10z m6122 -12 c-3 -8 -6 -5 -6 6 -1
11 2 17 5 13 3 -3 4 -12 1 -19z m-5655 -24 c-6 -33 -22 -41 -38 -20 -18 26
-18 34 4 39 27 7 37 1 34 -19z m6312 0 c10 -37 2 -39 -11 -4 -6 17 -8 30 -3
30 4 0 11 -12 14 -26z m-8627 -6 c-3 -8 -6 -5 -6 6 -1 11 2 17 5 13 3 -3 4
-12 1 -19z m7590 0 c-3 -8 -6 -5 -6 6 -1 11 2 17 5 13 3 -3 4 -12 1 -19z
m-1332 -8 c3 -5 -1 -10 -9 -10 -9 0 -16 5 -16 10 0 6 4 10 9 10 6 0 13 -4 16
-10z m1722 -37 c-3 -10 -5 -2 -5 17 0 19 2 27 5 18 2 -10 2 -26 0 -35z m-1147
7 c0 -5 -4 -10 -9 -10 -6 0 -13 5 -16 10 -3 6 1 10 9 10 9 0 16 -4 16 -10z
m217 -5 c0 -8 -4 -12 -9 -9 -5 3 -6 10 -3 15 9 13 12 11 12 -6z m-1057 -5 c0
-5 -7 -10 -15 -10 -8 0 -15 5 -15 10 0 6 7 10 15 10 8 0 15 -4 15 -10z m2008
-90 c0 -9 -3 -7 -8 5 -5 11 -8 29 -8 40 0 16 2 15 8 -5 4 -14 8 -32 8 -40z
m-303 10 c3 -5 1 -10 -4 -10 -6 0 -11 5 -11 10 0 6 2 10 4 10 3 0 8 -4 11 -10z
m5 -24 c0 -3 -4 -8 -10 -11 -5 -3 -10 -1 -10 4 0 6 5 11 10 11 6 0 10 -2 10
-4z m307 -48 c-3 -8 -6 -5 -6 6 -1 11 2 17 5 13 3 -3 4 -12 1 -19z"/>
<path d="M2499 8331 c10 -7 10 -10 1 -16 -7 -4 -16 -1 -21 6 -7 11 -9 10 -9
-3 0 -10 -6 -18 -12 -18 -10 0 -10 -2 -1 -8 7 -4 10 -17 6 -31 -4 -17 -8 -19
-14 -9 -5 7 -7 -6 -5 -34 3 -54 16 -74 64 -94 66 -27 129 14 139 89 8 67 -10
90 -77 102 -18 3 -41 10 -51 15 -22 12 -39 13 -20 1z m111 -121 c0 -5 -5 -10
-11 -10 -5 0 -7 5 -4 10 3 6 8 10 11 10 2 0 4 -4 4 -10z"/>
<path d="M3652 8255 c-14 -31 -15 -35 -2 -35 14 0 30 34 21 48 -5 9 -11 5 -19
-13z"/>
<path d="M1885 8261 c-12 -20 -14 -50 -5 -80 5 -19 4 -33 -3 -40 -8 -8 -6 -11
7 -11 9 0 14 -5 11 -10 -4 -6 -12 -7 -18 -4 -9 5 -8 3 0 -6 7 -8 9 -18 4 -24
-5 -6 -5 -21 0 -35 8 -19 12 -21 24 -11 8 7 12 17 8 23 -3 5 -1 7 5 3 22 -13
59 38 77 107 20 79 15 97 -9 33 -9 -24 -23 -49 -30 -55 -20 -16 -45 18 -52 70
-7 50 -9 55 -19 40z"/>
<path d="M2807 8143 c-10 -40 -2 -86 18 -97 11 -6 23 -15 26 -19 3 -5 9 6 12
23 5 23 1 42 -16 71 -24 43 -33 48 -40 22z"/>
<path d="M3644 8068 c-10 -12 -14 -19 -8 -15 8 4 11 -8 10 -40 -1 -29 4 -48
12 -50 9 -4 12 13 12 61 0 36 -2 66 -3 66 -2 0 -12 -10 -23 -22z"/>
<path d="M3620 8005 c0 -8 2 -15 4 -15 2 0 6 7 10 15 3 8 1 15 -4 15 -6 0 -10
-7 -10 -15z"/>
<path d="M1656 7692 c-3 -5 1 -9 9 -9 8 0 12 4 9 9 -3 4 -7 8 -9 8 -2 0 -6 -4
-9 -8z"/>
<path d="M1595 7670 l-20 -9 20 0 c11 0 27 4 35 9 13 9 13 10 0 9 -8 0 -24 -4
-35 -9z"/>
<path d="M6210 8337 c0 -15 7 -18 48 -15 34 2 47 7 47 18 0 11 -12 15 -47 15
-40 1 -48 -2 -48 -18z"/>
<path d="M6676 8353 c-3 -4 -6 -13 -6 -20 0 -11 12 -13 48 -11 33 2 47 7 47
18 0 10 -13 15 -42 16 -22 2 -44 0 -47 -3z"/>
<path d="M7150 8335 c0 -12 19 -15 115 -15 96 0 115 3 115 15 0 12 -19 15
-115 15 -96 0 -115 -3 -115 -15z"/>
<path d="M6886 8240 c-9 -17 -26 -34 -36 -40 -21 -11 -22 -8 23 -127 31 -82
47 -103 47 -62 0 18 3 19 14 9 12 -9 17 -4 26 32 5 24 14 59 20 78 9 34 6 107
-4 118 -3 3 -17 -19 -30 -49 -14 -30 -25 -52 -26 -49 0 3 -3 30 -6 60 -4 30
-7 56 -8 57 -1 1 -10 -11 -20 -27z"/>
<path d="M7395 8159 c-4 -11 -31 -13 -125 -10 -116 3 -120 2 -120 -18 0 -20 5
-21 124 -21 l125 0 3 -52 3 -52 29 38 28 38 -18 35 c-24 45 -42 60 -49 42z"/>
<path d="M7535 8150 c3 -4 -3 -11 -12 -14 -27 -11 3 -26 50 -26 40 0 50 15 17
25 -11 3 -20 10 -20 14 0 4 -9 7 -20 8 -11 1 -18 -2 -15 -7z"/>
<path d="M8060 7760 c0 -5 5 -10 11 -10 5 0 7 5 4 10 -3 6 -8 10 -11 10 -2 0
-4 -4 -4 -10z"/>
<path d="M4510 8338 c0 -16 12 -18 120 -18 76 0 120 4 120 10 0 17 -18 20
-133 22 -96 3 -107 1 -107 -14z"/>
<path d="M4510 8130 c0 -19 7 -20 118 -20 65 0 122 3 125 7 4 3 2 12 -4 20 -8
9 -42 13 -125 13 -107 0 -114 -1 -114 -20z"/>
<path d="M5415 8456 l-30 -13 24 -7 c22 -8 40 4 41 27 0 9 2 9 -35 -7z"/>
<path d="M5270 8131 c0 -20 4 -21 109 -21 103 0 138 8 109 26 -6 4 -58 10
-115 12 -100 4 -103 4 -103 -17z"/>
<path d="M5042 5207 c-12 -14 -8 -47 11 -85 16 -33 58 -26 68 11 7 26 6 27
-34 28 -41 1 -41 1 -14 12 15 6 27 17 27 25 0 9 -6 12 -17 8 -9 -4 -19 -2 -23
4 -5 8 -10 7 -18 -3z"/>
<path d="M5220 5189 c0 -11 5 -17 10 -14 6 3 10 13 10 21 0 8 -4 14 -10 14 -5
0 -10 -9 -10 -21z"/>
<path d="M5176 5175 c4 -8 10 -12 15 -9 14 8 10 24 -6 24 -9 0 -12 -6 -9 -15z"/>
<path d="M5182 5120 c-7 -11 -18 -20 -26 -20 -7 0 -16 -9 -19 -20 -3 -12 -14
-20 -25 -20 -11 0 -27 -3 -35 -6 -8 -3 -22 2 -31 11 -14 14 -16 15 -16 1 0 -8
8 -20 19 -25 48 -26 161 36 161 88 0 17 -14 13 -28 -9z"/>
<path d="M6090 5130 c0 -5 5 -10 10 -10 6 0 10 5 10 10 0 6 -4 10 -10 10 -5 0
-10 -4 -10 -10z"/>
<path d="M4160 5042 c0 -9 7 -12 19 -9 11 3 29 -2 40 -10 21 -14 41 -10 41 8
0 6 -4 8 -9 4 -5 -3 -16 2 -24 10 -19 18 -67 16 -67 -3z"/>
<path d="M3486 4895 c7 -17 48 -21 42 -3 -2 6 -14 13 -26 14 -15 3 -20 0 -16
-11z"/>
<path d="M6677 4849 c-22 -13 -13 -29 17 -29 28 0 36 8 29 26 -6 16 -21 17
-46 3z"/>
<path d="M6740 4834 c0 -14 3 -14 15 -4 8 7 15 14 15 16 0 2 -7 4 -15 4 -8 0
-15 -7 -15 -16z"/>
<path d="M3940 4699 c0 -6 -7 -9 -14 -6 -10 4 -13 1 -9 -9 4 -12 33 -21 33
-10 0 2 3 11 6 20 3 9 1 16 -5 16 -6 0 -11 -5 -11 -11z"/>
<path d="M6333 4653 c-30 -10 -43 -21 -45 -36 -3 -25 -12 -27 -134 -30 -51 -1
-87 -7 -97 -16 -15 -12 -17 -11 -17 3 0 17 -16 22 -22 7 -2 -5 -24 -6 -51 -1
-41 6 -53 4 -75 -14 -32 -26 -144 -140 -235 -238 -37 -40 -89 -95 -117 -123
-61 -62 -63 -77 -9 -73 25 1 43 -3 48 -11 5 -7 12 -47 15 -89 4 -42 9 -80 12
-84 6 -10 70 37 137 101 33 32 47 53 47 72 0 15 -5 29 -11 31 -7 2 -5 9 5 17
14 11 16 11 16 -3 0 -10 5 -14 11 -11 6 4 8 13 5 21 -3 7 3 18 12 23 16 9 16
11 -2 24 -18 13 -14 43 4 32 4 -2 20 5 34 16 31 25 43 20 26 -11 -13 -24 -17
-77 -6 -87 9 -9 67 58 60 69 -3 5 0 15 6 24 9 10 16 11 26 3 10 -8 24 -3 56
19 42 30 343 336 343 350 0 4 4 13 8 20 10 14 5 14 -50 -5z m-385 -273 c-7
-11 -16 -20 -20 -20 -5 0 -3 9 4 20 7 11 16 20 20 20 5 0 3 -9 -4 -20z m-32
-68 c-15 -15 -16 -15 -16 5 0 12 6 23 13 26 19 6 21 -13 3 -31z m-56 -22 c0
-5 -5 -10 -11 -10 -5 0 -7 5 -4 10 3 6 8 10 11 10 2 0 4 -4 4 -10z m-65 -45
c0 -16 -6 -19 -25 -17 -31 5 -32 5 -24 26 9 24 49 17 49 -9z"/>
<path d="M4060 4637 c0 -7 17 -33 38 -59 20 -25 73 -92 117 -148 121 -155 123
-157 134 -141 7 10 20 12 57 6 27 -5 55 -7 62 -6 6 1 12 -3 12 -9 0 -10 -33
-14 -98 -12 -29 1 -31 -1 -21 -20 6 -11 27 -37 46 -59 26 -29 39 -37 48 -29 9
8 13 7 12 -2 -2 -47 9 -73 59 -136 30 -40 61 -72 68 -72 9 0 16 24 20 79 8 86
16 99 67 110 l30 6 -96 100 c-86 90 -110 125 -87 125 5 0 20 -15 33 -34 37
-51 152 -171 172 -179 15 -6 17 0 17 46 0 32 6 61 15 73 15 19 15 19 30 -1 11
-14 18 -16 23 -8 13 20 36 18 69 -5 31 -22 38 -23 201 -18 104 3 178 9 196 17
22 11 29 10 36 0 6 -11 9 -11 13 0 5 12 7 12 15 0 10 -14 76 -6 67 9 -3 4 4 6
15 3 12 -3 20 0 20 6 0 7 4 10 9 7 4 -3 8 -30 8 -61 0 -30 2 -58 6 -61 3 -3
21 11 39 32 18 21 41 45 51 53 10 9 40 43 67 76 27 33 71 85 99 115 28 30 51
59 51 63 0 13 27 37 41 37 8 0 10 3 3 10 -10 10 -57 -3 -101 -28 -15 -8 -23
-9 -23 -2 0 18 -42 11 -47 -9 -2 -10 -16 -24 -30 -30 -14 -7 -35 -23 -46 -37
-10 -14 -26 -23 -33 -20 -13 5 -19 -6 -15 -28 1 -5 -7 -6 -19 -3 -15 4 -30 -5
-55 -30 -19 -20 -35 -40 -35 -45 0 -11 -38 -48 -50 -48 -16 0 -12 11 23 50 50
58 67 80 67 88 0 4 -18 8 -40 9 -27 1 -40 -3 -40 -11 0 -7 -9 -21 -20 -31 -11
-10 -20 -13 -20 -7 0 15 -27 16 -35 1 -10 -16 24 -49 43 -41 15 5 15 4 3 -11
-18 -22 -28 -21 -36 2 -4 13 -12 18 -21 14 -11 -4 -14 0 -10 18 4 20 -3 30
-40 57 l-44 32 -98 -11 c-53 -6 -108 -12 -122 -13 -14 0 -34 -12 -45 -25 -13
-15 -35 -25 -59 -28 -34 -3 -38 -2 -33 16 5 22 -14 34 -38 24 -9 -3 -22 2 -30
13 -7 11 -16 17 -19 13 -3 -3 10 -23 29 -44 18 -22 32 -41 30 -43 -6 -6 -65
38 -65 48 0 4 -8 11 -17 14 -14 6 -14 3 3 -16 10 -13 34 -37 52 -53 17 -17 32
-34 32 -38 0 -16 -19 -5 -66 38 -68 63 -79 72 -103 80 -11 3 -23 14 -26 25 -6
20 -57 73 -93 98 -17 11 -26 12 -35 3 -14 -14 -31 -15 -22 -1 3 6 -1 7 -9 4
-9 -3 -16 -2 -16 3 0 5 -14 10 -32 11 -18 2 -43 12 -55 24 -13 12 -26 18 -30
14 -10 -10 24 -63 66 -102 27 -25 32 -34 19 -34 -10 0 -18 4 -18 8 0 5 -23 31
-51 58 -28 27 -62 60 -75 73 -18 18 -30 22 -51 17 -47 -12 -110 -6 -122 11
-10 16 -41 23 -41 10z m560 -227 c0 -5 -4 -10 -10 -10 -5 0 -10 5 -10 10 0 6
5 10 10 10 6 0 10 -4 10 -10z m-124 -11 c13 -21 -12 -29 -29 -9 -16 19 -16 20
3 20 10 0 22 -5 26 -11z m-30 -185 c-3 -9 -6 -18 -6 -20 0 -2 -4 -4 -9 -4 -5
0 -7 9 -4 20 3 11 10 20 15 20 6 0 7 -7 4 -16z"/>
<path d="M2737 4303 c-3 -5 -20 -10 -39 -11 -32 -3 -57 -17 -47 -26 3 -3 26 1
52 9 26 8 55 11 64 8 11 -4 14 -2 11 8 -5 16 -34 24 -41 12z"/>
<path d="M2570 4290 c-8 -5 -13 -10 -10 -11 46 -7 61 -6 57 4 -5 16 -28 19
-47 7z"/>
<path d="M3665 4235 c12 -85 16 -97 30 -85 7 6 20 8 29 4 24 -9 20 9 -11 49
-16 19 -34 43 -41 53 -11 17 -12 14 -7 -21z"/>
<path d="M4862 4225 c-1 -28 17 -65 32 -65 12 0 6 28 -8 40 -8 6 -17 21 -19
33 -3 16 -5 14 -5 -8z"/>
<path d="M6336 4233 c-11 -11 -6 -23 9 -23 8 0 15 4 15 9 0 13 -16 22 -24 14z"/>
<path d="M6732 4209 c-16 -25 -6 -85 15 -94 22 -8 25 -2 13 29 -5 15 -8 38 -6
52 6 31 -7 38 -22 13z"/>
<path d="M830 4211 c0 -6 5 -13 10 -16 6 -3 10 1 10 9 0 9 -4 16 -10 16 -5 0
-10 -4 -10 -9z"/>
<path d="M3240 4209 c0 -5 5 -7 10 -4 6 3 10 8 10 11 0 2 -4 4 -10 4 -5 0 -10
-5 -10 -11z"/>
<path d="M5985 4200 c-3 -5 -1 -10 4 -10 6 0 11 5 11 10 0 6 -2 10 -4 10 -3 0
-8 -4 -11 -10z"/>
<path d="M4357 4179 c14 -14 5 -108 -12 -126 -11 -11 -15 -10 -20 7 -3 11 -10
20 -14 20 -39 0 -34 -103 8 -148 93 -101 133 -142 140 -142 3 0 5 19 3 42 -6
59 21 108 60 108 15 0 28 4 28 10 0 17 -64 100 -77 100 -7 0 -13 6 -13 14 0 7
-7 19 -16 27 -16 13 -25 6 -37 -26 -6 -15 -14 -4 -23 29 -6 25 -5 28 14 21 21
-6 20 -4 -5 34 -15 23 -31 41 -37 41 -6 0 -6 -4 1 -11z m88 -137 c0 -18 -20
-15 -23 4 -3 10 1 15 10 12 7 -3 13 -10 13 -16z m-65 -11 c0 -23 -16 -36 -25
-21 -9 14 1 40 15 40 5 0 10 -9 10 -19z"/>
<path d="M7280 4140 c0 -30 -1 -68 -3 -84 -2 -34 22 -48 30 -17 3 12 9 21 14
21 15 0 10 -32 -8 -52 -12 -14 -14 -21 -5 -30 8 -8 13 -7 17 8 15 44 26 65 33
61 4 -3 8 19 10 49 2 56 0 59 -49 55 -9 -1 -21 9 -27 21 -10 20 -11 16 -12
-32z"/>
<path d="M1666 4148 c-6 -31 -3 -78 4 -73 3 2 7 20 8 41 2 20 5 41 8 46 3 4 1
8 -5 8 -6 0 -13 -10 -15 -22z"/>
<path d="M2441 4161 c-21 -14 -5 -41 24 -41 29 0 45 27 24 41 -8 5 -18 9 -24
9 -5 0 -16 -4 -24 -9z"/>
<path d="M5338 4152 c-21 -2 -38 -8 -38 -13 0 -10 121 -11 148 -1 40 14 -17
22 -110 14z"/>
<path d="M6280 4150 c0 -6 12 -10 27 -10 29 0 24 12 -7 17 -11 2 -20 -2 -20
-7z"/>
<path d="M6146 4128 c8 -29 10 -31 23 -23 20 12 13 45 -10 45 -16 0 -19 -4
-13 -22z"/>
<path d="M6205 4140 c3 -5 10 -10 16 -10 5 0 9 5 9 10 0 6 -7 10 -16 10 -8 0
-12 -4 -9 -10z"/>
<path d="M6428 4143 c7 -3 16 -2 19 1 4 3 -2 6 -13 5 -11 0 -14 -3 -6 -6z"/>
<path d="M1046 4125 c4 -8 8 -15 10 -15 2 0 4 7 4 15 0 8 -4 15 -10 15 -5 0
-7 -7 -4 -15z"/>
<path d="M5890 4120 c-22 -22 -27 -45 -7 -36 6 3 20 9 30 12 18 7 24 44 7 44
-5 0 -19 -9 -30 -20z"/>
<path d="M787 4100 c-21 -25 -22 -36 -1 -44 11 -4 14 -1 9 13 -3 12 0 21 10
25 12 4 14 0 8 -22 -6 -24 -5 -26 10 -13 21 17 22 47 1 55 -20 8 -17 9 -37
-14z"/>
<path d="M4298 4113 c6 -2 18 -2 25 0 6 3 1 5 -13 5 -14 0 -19 -2 -12 -5z"/>
<path d="M890 4100 c0 -5 9 -10 20 -10 11 0 20 5 20 10 0 6 -9 10 -20 10 -11
0 -20 -4 -20 -10z"/>
<path d="M640 4090 c-8 -5 -12 -11 -9 -14 2 -3 11 -1 19 4 8 5 12 11 9 14 -2
3 -11 1 -19 -4z"/>
<path d="M9906 4073 c8 -32 24 -66 29 -61 2 2 -2 22 -8 46 -12 46 -32 59 -21
15z"/>
<path d="M568 4078 c-9 -5 -4 -8 15 -8 15 0 27 4 27 8 0 11 -25 11 -42 0z"/>
<path d="M695 4079 c-10 -15 1 -23 20 -15 9 3 13 10 10 16 -8 13 -22 13 -30
-1z"/>
<path d="M5818 4067 c-15 -12 -40 -52 -56 -88 -28 -62 -29 -73 -24 -158 l5
-91 48 0 c45 0 50 -3 74 -37 24 -36 25 -44 25 -175 0 -76 3 -138 8 -137 4 0
44 64 90 142 46 78 106 180 133 227 49 84 57 115 29 115 -9 0 -16 -11 -18 -27
-5 -40 -22 -34 -22 7 0 19 -4 35 -10 35 -20 0 -9 43 21 81 36 46 23 53 -15 8
-14 -17 -29 -28 -33 -26 -5 3 -9 -9 -10 -26 -3 -30 -10 -106 -12 -117 -1 -3
-6 2 -11 10 -8 13 -10 12 -10 -2 0 -29 -18 -21 -23 10 l-4 27 -2 -27 c-1 -34
-3 -34 -36 -4 -26 24 -27 28 -24 122 3 91 2 98 -18 105 -12 4 -24 12 -28 18
-3 6 -11 9 -16 6 -5 -4 -12 1 -15 9 -8 21 -14 20 -46 -7z m282 -204 c0 -5 -4
-15 -10 -23 -11 -18 -25 -7 -17 15 6 15 27 21 27 8z"/>
<path d="M6151 4074 c0 -11 3 -14 6 -6 3 7 2 16 -1 19 -3 4 -6 -2 -5 -13z"/>
<path d="M6683 4075 c-8 -22 6 -33 17 -15 13 20 12 30 0 30 -6 0 -13 -7 -17
-15z"/>
<path d="M3311 4054 c0 -11 3 -14 6 -6 3 7 2 16 -1 19 -3 4 -6 -2 -5 -13z"/>
<path d="M4115 4060 c-3 -6 1 -13 9 -16 9 -3 16 -14 16 -23 0 -13 2 -14 9 -2
6 9 6 22 0 33 -11 20 -25 23 -34 8z"/>
<path d="M8880 4046 c-10 -20 -18 -24 -37 -20 -26 7 -28 -1 -10 -39 15 -34 18
-34 39 3 11 19 25 30 38 30 16 0 21 5 18 22 -4 32 -32 34 -48 4z"/>
<path d="M4230 4050 c0 -5 5 -10 10 -10 6 0 10 5 10 10 0 6 -4 10 -10 10 -5 0
-10 -4 -10 -10z"/>
<path d="M5455 4050 c-3 -5 1 -10 9 -10 8 0 18 5 21 10 3 6 -1 10 -9 10 -8 0
-18 -4 -21 -10z"/>
<path d="M6797 4019 c-24 -14 -21 -26 7 -26 14 0 23 5 22 13 -3 21 -10 23 -29
13z"/>
<path d="M5357 4013 c-4 -3 -7 -18 -7 -32 0 -28 14 -19 25 17 6 21 -4 30 -18
15z"/>
<path d="M5694 3983 l-48 -37 34 -7 c19 -4 37 -6 39 -3 11 11 39 84 32 84 -4
0 -30 -17 -57 -37z"/>
<path d="M845 4000 c3 -5 13 -10 21 -10 8 0 14 5 14 10 0 6 -9 10 -21 10 -11
0 -17 -4 -14 -10z"/>
<path d="M2161 3994 c0 -11 3 -14 6 -6 3 7 2 16 -1 19 -3 4 -6 -2 -5 -13z"/>
<path d="M4191 3994 c0 -11 3 -14 6 -6 3 7 2 16 -1 19 -3 4 -6 -2 -5 -13z"/>
<path d="M8465 3990 c-8 -13 -1 -24 14 -19 6 3 7 10 2 18 -6 10 -10 10 -16 1z"/>
<path d="M9850 3981 c0 -5 7 -11 15 -15 9 -3 15 0 15 9 0 8 -7 15 -15 15 -8 0
-15 -4 -15 -9z"/>
<path d="M1700 3970 c0 -5 9 -11 20 -11 11 -1 25 -2 32 -3 6 -1 13 5 16 12 2
8 -8 12 -32 12 -20 0 -36 -4 -36 -10z"/>
<path d="M6895 3960 c3 -5 8 -10 11 -10 2 0 4 5 4 10 0 6 -5 10 -11 10 -5 0
-7 -4 -4 -10z"/>
<path d="M9810 3963 c0 -4 5 -15 10 -23 8 -13 10 -13 10 2 0 9 -4 20 -10 23
-5 3 -10 3 -10 -2z"/>
<path d="M9940 3960 c0 -5 5 -10 11 -10 5 0 7 5 4 10 -3 6 -8 10 -11 10 -2 0
-4 -4 -4 -10z"/>
<path d="M5962 3935 c0 -16 2 -22 5 -12 2 9 2 23 0 30 -3 6 -5 -1 -5 -18z"/>
<path d="M1370 3942 c0 -19 12 -42 22 -42 14 0 5 43 -9 48 -7 2 -13 -1 -13 -6z"/>
<path d="M1056 3931 c-8 -13 4 -42 15 -35 12 7 12 44 0 44 -6 0 -12 -4 -15 -9z"/>
<path d="M3120 3930 c0 -5 7 -10 16 -10 8 0 12 5 9 10 -3 6 -10 10 -16 10 -5
0 -9 -4 -9 -10z"/>
<path d="M4286 3900 c8 -40 -3 -80 -22 -80 -11 0 -14 -5 -10 -16 7 -17 -10
-54 -24 -54 -5 0 -18 9 -29 21 -22 24 -50 17 -30 -7 6 -7 8 -22 4 -31 -6 -16
-8 -15 -20 7 -8 14 -12 34 -9 46 3 12 -1 26 -10 33 -14 12 -16 9 -16 -19 0
-25 -3 -31 -16 -26 -9 3 -17 6 -19 6 -2 0 -7 16 -11 35 -7 38 -15 43 -33 21
-12 -14 -5 -72 12 -93 6 -9 6 -13 -2 -13 -7 0 -11 -24 -11 -66 0 -86 -18 -109
-55 -67 -28 32 -31 23 -11 -35 17 -49 4 -66 -18 -24 -8 16 -22 35 -32 43 -15
12 -16 10 -10 -27 6 -32 3 -45 -13 -66 -28 -35 -26 -62 6 -117 15 -25 36 -59
45 -76 10 -16 30 -54 45 -82 15 -29 31 -53 35 -53 4 0 8 32 8 72 0 62 4 78 27
112 16 23 32 44 38 48 5 4 47 8 91 8 66 0 83 3 88 16 3 9 6 65 7 124 0 102 2
111 30 154 28 46 29 46 84 46 38 0 55 4 55 13 0 13 -160 177 -172 177 -4 0 -5
-13 -2 -30z m-126 -301 c108 -154 126 -183 112 -178 -6 2 -54 66 -106 141
-113 165 -109 158 -99 158 4 -1 46 -55 93 -121z m-241 -150 c-20 -12 -22 -4
-8 23 12 21 13 21 17 4 2 -10 -2 -22 -9 -27z"/>
<path d="M570 3909 c0 -5 5 -7 10 -4 6 3 10 8 10 11 0 2 -4 4 -10 4 -5 0 -10
-5 -10 -11z"/>
<path d="M9290 3910 c0 -5 3 -16 6 -25 6 -14 8 -14 25 1 25 23 24 29 -6 30
-14 1 -25 -2 -25 -6z"/>
<path d="M1140 3890 c20 -13 33 -13 25 0 -3 6 -14 10 -23 10 -15 0 -15 -2 -2
-10z"/>
<path d="M5950 3884 c0 -8 5 -12 10 -9 6 4 8 11 5 16 -9 14 -15 11 -15 -7z"/>
<path d="M7315 3875 c-18 -14 -18 -16 -3 -32 13 -12 20 -14 31 -5 11 9 17 7
27 -13 15 -28 30 -33 30 -10 0 28 -30 75 -48 75 -9 0 -26 -7 -37 -15z"/>
<path d="M7415 3868 c-9 -14 -11 -24 -5 -26 14 -5 40 17 40 34 0 21 -17 17
-35 -8z"/>
<path d="M9970 3855 c0 -16 6 -25 15 -25 9 0 15 9 15 25 0 16 -6 25 -15 25 -9
0 -15 -9 -15 -25z"/>
<path d="M4210 3855 c0 -8 5 -15 10 -15 6 0 10 7 10 15 0 8 -4 15 -10 15 -5 0
-10 -7 -10 -15z"/>
<path d="M8745 3859 c-10 -15 3 -25 16 -12 7 7 7 13 1 17 -6 3 -14 1 -17 -5z"/>
<path d="M644 3842 c-14 -9 -28 -52 -17 -52 5 0 14 14 20 30 6 17 11 30 10 30
-1 0 -7 -4 -13 -8z"/>
<path d="M7782 3824 c-12 -8 -22 -22 -22 -31 0 -15 2 -14 18 0 10 10 24 17 30
17 7 0 12 7 12 15 0 19 -10 19 -38 -1z"/>
<path d="M9151 3826 c-7 -8 -11 -36 -9 -68 3 -50 5 -53 31 -56 24 -3 27 0 27
26 0 30 -17 91 -30 105 -4 4 -12 1 -19 -7z"/>
<path d="M9206 3793 c15 -79 19 -88 45 -88 22 0 24 4 25 45 2 71 -3 80 -42 80
-35 0 -35 0 -28 -37z"/>
<path d="M9905 3812 c-9 -9 -6 -20 11 -36 20 -21 31 -20 36 2 5 18 -34 46 -47
34z"/>
<path d="M5400 3794 c0 -8 5 -12 10 -9 6 3 10 10 10 16 0 5 -4 9 -10 9 -5 0
-10 -7 -10 -16z"/>
<path d="M1265 3780 c4 -6 11 -8 16 -5 14 9 11 15 -7 15 -8 0 -12 -5 -9 -10z"/>
<path d="M6118 3713 c-25 -43 -77 -133 -116 -200 -40 -67 -72 -124 -72 -128 0
-3 32 -5 72 -4 l72 2 35 -54 c33 -50 35 -59 33 -126 -1 -40 2 -75 8 -78 5 -3
19 13 31 37 20 39 87 146 99 158 3 3 27 40 53 84 46 75 59 116 25 83 -14 -14
-17 -15 -22 -2 -8 23 17 90 34 90 8 0 16 -10 18 -22 3 -18 -2 -23 -17 -23 -12
0 -21 -4 -21 -10 0 -5 4 -10 9 -10 5 0 15 -2 23 -5 8 -3 19 7 27 27 13 30 13
32 -13 55 -34 29 -60 31 -53 3 3 -11 1 -20 -4 -20 -5 0 -9 -11 -9 -24 0 -14
-5 -28 -10 -31 -12 -8 -29 35 -22 54 3 9 1 12 -6 7 -6 -3 -13 -2 -17 4 -14 22
-25 8 -25 -32 0 -41 0 -41 -21 -22 -23 21 -22 40 4 154 8 36 14 66 12 68 -3 3
-35 -62 -50 -103 -11 -27 -27 68 -20 113 9 52 -10 37 -57 -45z m172 -203 c0
-16 -4 -30 -10 -30 -5 0 -10 14 -10 30 0 17 5 30 10 30 6 0 10 -13 10 -30z"/>
<path d="M7390 3776 c0 -8 5 -18 10 -21 6 -3 10 1 10 9 0 8 -4 18 -10 21 -5 3
-10 -1 -10 -9z"/>
<path d="M3926 3771 c-7 -10 22 -37 30 -28 9 8 -3 37 -15 37 -5 0 -12 -4 -15
-9z"/>
<path d="M8701 3738 c2 -30 3 -35 6 -15 3 19 10 27 24 27 23 0 25 15 3 24 -29
11 -34 6 -33 -36z"/>
<path d="M9737 3773 c-12 -11 -8 -23 8 -23 8 0 15 7 15 15 0 16 -12 20 -23 8z"/>
<path d="M3856 3754 c-4 -9 -4 -19 -2 -22 10 -9 36 8 36 23 0 20 -26 19 -34
-1z"/>
<path d="M547 3740 c6 -24 19 -34 34 -25 7 5 4 14 -7 26 -22 25 -33 24 -27 -1z"/>
<path d="M8965 3742 c3 -8 5 -16 5 -18 0 -2 8 -4 18 -4 10 0 18 7 18 18 0 11
-8 17 -23 17 -15 0 -21 -5 -18 -13z"/>
<path d="M2489 3734 c-9 -11 -9 -18 -1 -26 9 -9 12 -8 12 5 0 9 7 17 15 17 8
0 15 -4 15 -10 0 -5 5 -10 11 -10 14 0 2 18 -21 30 -13 7 -21 6 -31 -6z"/>
<path d="M9942 3730 c0 -14 2 -19 5 -12 2 6 2 18 0 25 -3 6 -5 1 -5 -13z"/>
<path d="M7400 3733 c0 -4 5 -15 10 -23 8 -13 10 -13 10 2 0 9 -4 20 -10 23
-5 3 -10 3 -10 -2z"/>
<path d="M9758 3734 c-5 -4 -8 -19 -8 -33 1 -23 2 -24 11 -8 11 19 9 53 -3 41z"/>
<path d="M9670 3716 c0 -2 7 -6 15 -10 8 -3 15 -1 15 4 0 6 -7 10 -15 10 -8 0
-15 -2 -15 -4z"/>
<path d="M3927 3703 c-12 -12 -7 -53 6 -53 7 0 13 11 12 24 0 27 -8 40 -18 29z"/>
<path d="M7910 3670 c8 -5 22 -9 30 -9 10 0 8 3 -5 9 -27 12 -43 12 -25 0z"/>
<path d="M9620 3668 c0 -19 18 -43 25 -36 9 9 -4 48 -16 48 -5 0 -9 -6 -9 -12z"/>
<path d="M7531 3613 c0 -4 4 -17 9 -28 8 -19 9 -19 9 2 1 12 -3 25 -9 28 -5 3
-10 3 -9 -2z"/>
<path d="M1420 3600 c0 -5 5 -10 11 -10 5 0 7 5 4 10 -3 6 -8 10 -11 10 -2 0
-4 -4 -4 -10z"/>
<path d="M4557 3603 c-12 -11 -8 -23 8 -23 9 0 20 -10 25 -22 l9 -23 0 22 c1
12 -6 29 -15 37 -18 18 -18 18 -27 9z"/>
<path d="M7398 3596 c-19 -14 -24 -36 -9 -36 12 0 41 29 41 41 0 13 -12 11
-32 -5z"/>
<path d="M356 3569 c-26 -25 -17 -32 13 -10 13 10 20 20 15 23 -5 3 -18 -3
-28 -13z"/>
<path d="M7757 3584 c-4 -4 -7 -14 -7 -23 0 -11 3 -12 11 -4 6 6 10 16 7 23
-2 6 -7 8 -11 4z"/>
<path d="M1440 3571 c0 -6 5 -13 10 -16 6 -3 10 1 10 9 0 9 -4 16 -10 16 -5 0
-10 -4 -10 -9z"/>
<path d="M8700 3543 c0 -23 4 -33 9 -27 17 17 17 64 1 64 -5 0 -10 -17 -10
-37z"/>
<path d="M3740 3545 c-5 -13 -8 -57 -7 -96 2 -45 -2 -77 -10 -87 -17 -23 -16
-33 2 -26 8 4 15 1 15 -5 0 -6 -7 -11 -15 -11 -8 0 -15 -5 -15 -11 0 -6 -13
-21 -29 -35 -17 -14 -31 -37 -33 -52 l-3 -27 -32 34 c-18 19 -36 32 -40 28 -3
-4 -1 -13 5 -19 7 -7 12 -18 12 -25 0 -10 -5 -10 -25 -1 -29 13 -36 52 -20
115 4 18 3 24 -3 18 -8 -9 -42 -126 -44 -150 0 -5 3 -18 7 -27 5 -12 3 -18 -7
-18 -17 0 -48 35 -48 55 0 8 -4 15 -9 15 -6 0 -7 -15 -4 -34 3 -21 1 -36 -7
-41 -17 -10 -29 12 -31 55 l-2 35 -7 -40 -6 -40 -13 29 c-24 59 -35 14 -35
-151 -1 -171 -6 -195 -36 -168 -21 19 -42 70 -33 79 12 11 22 6 28 -14 3 -11
13 -20 21 -20 20 0 17 17 -6 40 -11 11 -20 29 -20 40 0 11 -7 20 -15 20 -8 0
-15 -9 -15 -19 0 -47 -11 -52 -42 -21 -20 21 -28 36 -23 48 6 16 7 16 19 0 13
-17 36 -25 36 -12 0 12 -32 74 -39 74 -7 0 -31 -72 -31 -94 0 -29 23 -66 41
-66 15 0 17 -4 10 -23 -6 -14 -5 -30 1 -41 5 -10 8 -28 6 -41 -7 -32 8 -56 22
-35 8 13 10 12 10 -2 0 -26 -33 -22 -63 8 -29 29 -42 72 -32 106 6 19 5 21 -6
11 -19 -18 -29 -16 -29 6 0 11 -5 23 -10 26 -18 11 -23 -26 -8 -54 12 -21 13
-33 4 -63 l-11 -37 -18 27 c-36 56 -65 91 -70 85 -4 -3 -2 -14 4 -25 6 -10 9
-24 7 -30 -6 -17 -58 44 -58 67 -1 19 -1 19 -11 1 -8 -13 -8 -25 0 -43 9 -20
8 -27 -12 -46 -12 -13 -35 -39 -51 -58 -16 -18 -37 -34 -46 -35 -26 -2 -40
-13 -40 -32 0 -9 -20 -35 -45 -58 -25 -22 -45 -47 -45 -55 1 -12 3 -11 13 1 7
8 23 24 36 35 l24 20 -6 -30 c-3 -16 -9 -39 -13 -49 -5 -14 -4 -17 4 -12 7 4
12 16 12 27 0 10 3 19 8 19 14 0 13 -129 -3 -166 -8 -20 -15 -46 -15 -57 0
-11 -3 -18 -6 -14 -3 3 -1 38 6 77 9 52 9 75 1 83 -8 8 -13 2 -17 -21 -4 -18
-10 -32 -14 -32 -4 0 -10 -9 -13 -20 -3 -12 -1 -17 5 -14 6 4 7 -17 2 -58 -7
-72 -24 -102 -24 -44 0 20 -5 46 -10 57 -8 13 -7 19 0 19 6 0 8 5 5 10 -11 18
-25 11 -25 -12 -1 -21 -2 -21 -16 5 -12 22 -13 32 -4 42 7 8 10 20 7 27 -3 8
-6 6 -6 -5 -2 -31 -26 -13 -32 24 -8 46 -26 89 -38 89 -19 0 -20 65 0 92 21
30 10 47 -15 22 -9 -9 -16 -32 -16 -54 0 -26 -6 -42 -17 -48 -19 -11 -13 -53
32 -231 26 -101 28 -171 5 -171 -6 0 -10 5 -10 10 0 6 -5 10 -11 10 -7 0 -10
-14 -7 -35 2 -19 1 -35 -4 -35 -16 0 -29 43 -34 108 -3 46 -10 71 -21 79 -25
19 -26 10 -9 -50 19 -64 20 -77 6 -77 -13 0 -22 23 -50 125 -13 44 -29 89 -37
100 -14 19 -15 19 -7 -5 19 -66 34 -127 34 -144 0 -16 -2 -17 -16 -5 -23 19
-54 22 -54 4 0 -8 9 -15 19 -15 11 0 30 -13 43 -29 19 -22 23 -37 20 -65 -4
-33 -6 -35 -18 -19 -14 19 -17 14 -14 -29 1 -16 -3 -28 -9 -28 -6 0 -11 7 -11
15 0 8 -7 15 -15 15 -10 0 -17 14 -21 40 -8 48 -24 63 -25 23 l-1 -28 -9 30
c-5 17 -6 39 -2 50 5 16 -4 12 -38 -16 -24 -20 -44 -46 -44 -56 -1 -11 -17
-36 -38 -55 -21 -20 -37 -29 -37 -22 0 8 -6 14 -14 14 -8 0 -21 3 -30 6 -12 4
-16 0 -16 -16 0 -15 -5 -20 -17 -18 -10 2 -17 11 -17 21 1 13 -6 17 -32 17
-31 0 -33 -2 -22 -19 7 -11 23 -25 36 -31 19 -8 23 -16 20 -35 -3 -14 1 -30 8
-36 9 -7 14 -33 14 -71 l0 -59 -29 22 c-31 23 -73 29 -103 15 -15 -7 -18 -3
-18 17 0 35 -16 43 -24 12 -4 -14 -11 -25 -17 -25 -17 0 -1 50 21 69 21 17 38
71 23 71 -11 0 -83 -119 -83 -137 0 -20 -14 -16 -29 8 -9 16 -10 24 -2 29 7 3
15 24 18 45 4 27 3 36 -5 31 -7 -4 -12 -13 -12 -21 0 -8 -6 -18 -14 -22 -7 -4
-16 -15 -20 -23 -3 -8 -3 -1 1 15 18 82 -4 103 -28 25 -13 -44 -69 -118 -69
-91 0 5 5 13 10 16 16 10 12 42 -10 87 -11 22 -17 45 -13 51 4 6 1 7 -7 2 -10
-6 -11 -2 -6 19 4 18 3 25 -4 21 -5 -3 -10 -1 -10 4 0 13 -10 14 -29 2 -9 -6
-14 -25 -13 -53 l1 -43 -15 28 c-12 23 -13 31 -3 43 10 12 10 17 1 23 -17 10
-72 1 -72 -12 0 -6 -6 -3 -13 7 -12 16 -21 17 -92 8 -85 -10 -105 -4 -105 29
0 9 -7 25 -15 33 -9 9 -25 41 -36 73 -20 58 -73 150 -120 205 -22 27 -28 29
-47 19 -12 -6 -22 -17 -21 -24 0 -9 2 -9 6 1 9 23 28 11 77 -51 66 -85 142
-250 129 -284 -8 -21 -53 -8 -80 22 -36 40 -44 29 -17 -24 24 -46 26 -58 25
-183 -1 -73 -3 -142 -4 -153 -1 -13 3 -19 12 -17 12 3 12 1 0 -14 -11 -15 -11
-16 0 -10 9 6 12 5 9 -5 -6 -18 19 -42 36 -36 18 7 28 47 11 47 -7 0 -15 -6
-18 -12 -3 -7 -3 7 -2 31 5 53 12 61 46 54 19 -3 25 -10 22 -21 -2 -10 8 -32
22 -51 15 -21 25 -47 24 -65 0 -17 -3 -24 -6 -16 -3 8 -15 30 -26 49 -19 31
-21 32 -34 15 -20 -28 -17 -64 6 -64 11 0 23 -5 27 -11 4 -7 -10 -9 -50 -4
-62 8 -77 1 -102 -48 -17 -32 -7 -31 33 6 19 17 27 19 48 9 14 -7 35 -12 45
-12 25 0 26 -16 3 -29 -16 -9 -16 -12 -3 -21 10 -6 11 -10 3 -10 -7 0 -13 -9
-13 -20 0 -21 -24 -28 -35 -10 -3 5 -14 10 -23 9 -11 0 -12 -3 -4 -6 6 -2 12
-15 12 -28 0 -13 5 -27 10 -30 6 -4 7 -12 3 -18 -4 -7 -8 -24 -8 -39 0 -28
-20 -40 -20 -13 0 18 -19 20 -21 2 0 -6 -2 -16 -4 -22 -1 -5 -2 -21 -1 -35 1
-26 -14 -58 -23 -49 -12 12 -28 160 -23 219 l5 65 -15 -35 c-17 -38 -13 -172
6 -238 8 -28 6 -36 -13 -55 -28 -28 -94 -139 -102 -172 -3 -14 -10 -22 -16
-19 -5 3 -6 13 -3 23 18 41 64 176 62 178 -2 1 -13 0 -24 -3 -14 -4 -24 -17
-28 -35 -9 -42 -25 -46 -25 -7 0 25 9 44 35 71 42 45 47 72 6 33 -36 -34 -44
-23 -31 45 6 29 8 55 5 57 -3 3 -5 0 -5 -6 0 -7 -4 -12 -10 -12 -5 0 -10 7
-10 16 0 19 -31 87 -37 81 -2 -2 4 -36 13 -74 13 -55 15 -73 5 -84 -6 -8 -22
-27 -36 -43 l-24 -30 -11 30 c-6 16 -13 35 -15 42 -3 7 0 22 5 33 8 14 8 19
-1 17 -17 -4 -51 110 -44 148 12 66 -24 89 -43 28 -9 -29 -8 -43 2 -63 20 -39
48 -142 42 -156 -6 -16 -66 -46 -77 -39 -5 3 -9 0 -9 -5 0 -6 -7 -11 -15 -11
-8 0 -15 5 -15 10 0 6 -11 15 -25 20 -14 5 -27 20 -31 35 -3 13 -10 23 -14 20
-12 -7 -40 41 -40 67 0 13 7 32 15 42 25 32 16 43 -10 14 l-24 -28 -35 63
c-35 62 -35 63 -31 167 2 58 4 109 4 115 1 5 5 5 11 -1 6 -6 12 -32 13 -58 3
-59 19 -60 30 -2 11 57 -8 102 -41 99 -25 -3 -29 18 -11 64 18 47 21 118 7
153 -13 30 -13 27 -13 -53 0 -47 -3 -89 -8 -93 -4 -4 -20 8 -36 27 l-29 34
-13 -27 c-9 -21 -9 -34 -1 -50 l11 -23 0 23 c1 29 17 28 37 -3 25 -38 25 -229
1 -266 -9 -14 -26 -59 -36 -100 l-19 -74 -6 85 c-3 47 -8 193 -12 325 -3 132
-6 241 -7 241 -1 1 -84 4 -185 7 -178 6 -227 13 -186 27 15 5 18 15 16 44 -4
42 6 98 17 92 3 -3 7 26 7 62 0 96 5 176 16 264 6 54 6 84 -2 98 -6 11 -7 26
-3 33 4 6 8 21 9 32 0 11 1 40 2 65 2 44 4 47 40 59 44 16 92 58 86 76 -3 6 2
17 10 24 7 6 12 21 9 31 -4 14 0 20 12 20 10 0 14 5 11 13 -3 6 -9 20 -12 30
-4 9 -12 17 -19 17 -7 0 -16 7 -19 16 -6 15 -49 17 -71 3 -5 -3 -34 -6 -62 -5
-29 1 -54 -3 -56 -8 -2 -5 -13 -4 -24 3 -12 6 -29 8 -37 5 -14 -6 -16 -156
-16 -1555 l0 -1549 5000 0 5000 0 0 1045 c0 575 -1 1046 -2 1046 -2 1 -55 4
-118 8 l-115 6 -3 35 c-4 55 -10 64 -27 50 -17 -14 -20 -56 -5 -65 6 -4 10
-99 10 -254 l0 -247 -41 -39 c-22 -21 -45 -48 -50 -59 -5 -12 -16 -31 -25 -43
-10 -14 -12 -23 -5 -23 6 0 18 12 28 28 40 63 77 102 87 92 6 -6 0 -24 -20
-52 -17 -24 -38 -63 -49 -88 -10 -25 -32 -66 -48 -92 l-30 -48 -22 23 c-12 12
-25 39 -29 60 -7 36 -6 38 13 28 10 -6 22 -16 24 -23 4 -10 8 -9 16 2 6 9 7
18 1 24 -6 6 -10 18 -10 28 0 10 -5 18 -11 18 -6 0 -10 10 -9 23 4 46 0 67
-14 67 -17 0 -28 -42 -20 -74 4 -18 1 -27 -15 -36 -12 -6 -21 -19 -21 -30 0
-25 -18 -36 -26 -16 -3 9 -13 16 -21 16 -11 0 -9 -7 8 -25 13 -13 30 -25 37
-25 16 0 15 -10 -4 -31 -13 -14 -21 -16 -42 -8 -21 8 -29 7 -39 -7 -7 -10 -13
-14 -13 -8 0 15 14 30 34 38 37 13 3 26 -39 15 -45 -12 -69 -29 -41 -29 11 0
16 -5 13 -14 -3 -8 -11 -41 -18 -75 -12 -63 -21 -74 -38 -43 -15 28 -87 58
-104 43 -21 -17 -38 9 -39 58 0 28 13 68 46 136 46 94 47 95 69 80 12 -8 30
-15 41 -15 10 0 24 -7 31 -17 20 -27 35 -8 23 30 -6 17 -13 38 -15 46 -3 11
-6 12 -15 3 -7 -7 -25 -12 -41 -12 -24 0 -28 3 -22 18 23 54 53 142 59 172 7
35 7 35 -8 10 -9 -14 -25 -52 -36 -85 -11 -33 -49 -112 -83 -177 -51 -95 -65
-115 -78 -107 -25 13 -47 -11 -50 -56 -2 -22 2 -49 9 -60 10 -17 11 -11 12 37
0 48 3 56 16 51 13 -5 15 -17 11 -71 -4 -40 -2 -60 3 -52 8 12 10 12 15 -2 4
-9 5 -22 4 -29 -1 -8 0 -21 3 -29 15 -42 39 -132 36 -135 -2 -2 -21 12 -43 31
l-39 35 19 34 c10 20 15 38 11 42 -11 11 -36 -21 -38 -50 -1 -15 -6 -27 -11
-27 -4 0 -5 26 -1 59 8 74 -11 121 -20 51 -4 -25 -7 -61 -9 -80 -2 -31 -41
-100 -51 -89 -2 2 5 65 15 139 10 74 21 155 25 180 3 25 9 47 13 50 4 3 11 18
15 34 4 15 15 30 25 33 12 3 21 20 27 51 8 40 12 47 32 46 16 0 21 4 17 13 -3
8 -5 17 -5 19 0 2 -13 4 -28 4 -40 0 -65 -33 -86 -110 -30 -109 -45 -144 -66
-158 -17 -10 -21 -10 -27 4 -3 9 0 19 6 24 9 5 6 9 -9 13 -23 6 -23 -1 -5 -46
4 -9 3 -17 -3 -17 -11 0 -22 47 -22 95 0 25 10 42 42 73 31 30 36 40 22 39
-16 -2 -20 7 -24 50 -3 28 -2 49 2 47 5 -3 8 2 8 10 0 9 -4 16 -9 16 -4 0 -6
10 -4 23 3 14 -3 29 -16 41 -25 22 -28 41 -6 32 14 -5 13 -1 -2 24 -9 17 -20
30 -23 30 -3 0 -7 -30 -8 -67 -2 -37 -8 -70 -14 -74 -6 -4 -8 -11 -6 -15 3 -5
-3 -17 -13 -26 -14 -13 -18 -14 -23 -3 -3 8 -1 17 5 21 6 3 8 12 5 20 -3 8 1
14 10 14 9 0 12 5 8 11 -3 6 0 15 7 20 7 4 10 11 6 15 -12 12 -47 -28 -47 -55
0 -19 -3 -22 -12 -13 -15 15 14 82 36 82 11 0 16 14 18 53 4 62 24 70 50 18 9
-19 22 -39 27 -44 19 -19 12 53 -8 81 -23 33 -36 167 -18 179 15 10 37 49 37
66 0 9 -28 13 -112 15 -62 1 -132 5 -154 8 -26 4 -51 1 -65 -7 -13 -7 -29 -12
-36 -11 -6 1 -14 -2 -18 -8 -3 -6 0 -7 9 -4 14 5 14 3 1 -22 -8 -16 -15 -35
-15 -41 0 -7 -4 -13 -9 -13 -5 0 -6 15 -2 33 12 55 4 70 -32 62 -18 -4 -43 -8
-57 -10 -36 -4 -37 -4 -16 -20 18 -13 18 -15 -3 -43 -12 -17 -21 -40 -21 -51
0 -40 -19 -21 -25 27 -3 26 -7 54 -8 62 -4 21 -78 15 -95 -7 -18 -24 2 -42 28
-25 57 35 52 -3 -7 -59 -27 -24 -49 -53 -50 -64 -6 -70 -5 -92 5 -112 30 -56
31 -69 6 -98 -13 -15 -24 -35 -24 -42 0 -8 11 -1 26 16 14 17 29 31 33 31 7 0
41 -74 41 -90 0 -6 4 -10 10 -10 5 0 6 -7 3 -17 -4 -11 -3 -14 5 -9 17 11 15
-36 -3 -60 -14 -18 -14 -17 -15 12 0 17 -7 54 -15 82 -13 43 -19 51 -36 49
-26 -4 -39 -24 -39 -61 0 -63 -19 -6 -50 154 -36 185 -36 257 -1 294 12 12 21
28 21 34 0 21 -19 13 -37 -15 -9 -16 -18 -30 -20 -32 -1 -2 -10 2 -20 10 -15
13 -16 12 -8 -6 5 -11 10 -54 12 -95 3 -74 3 -75 -15 -51 -36 51 -51 66 -58
58 -4 -4 -1 -13 7 -20 27 -22 71 -100 73 -126 1 -14 5 -31 9 -38 4 -6 4 -18 1
-26 -3 -8 -1 -18 5 -21 6 -4 7 -14 4 -24 -9 -24 -55 -93 -60 -89 -3 4 17 52
39 91 7 13 6 21 -2 26 -7 4 -9 16 -5 29 3 11 2 21 -3 21 -13 0 -64 -129 -56
-142 4 -6 -2 -6 -15 1 -26 15 -26 19 2 84 29 65 41 123 27 132 -5 3 -10 14
-10 24 0 10 -10 26 -22 37 -19 17 -21 17 -15 1 4 -11 1 -17 -9 -17 -15 0 -13
20 6 83 5 15 5 27 1 27 -5 0 -11 -10 -14 -22 -12 -50 -49 -148 -56 -148 -3 0
-17 31 -30 69 -18 54 -24 91 -24 165 0 71 -3 96 -12 96 -15 0 -26 -119 -13
-134 4 -6 8 -29 8 -51 0 -36 16 -98 45 -170 7 -16 3 -15 -22 8 -33 31 -43 34
-43 11 0 -9 9 -18 20 -21 10 -3 22 -15 26 -27 4 -11 10 -23 15 -26 4 -3 2 -24
-6 -45 -9 -29 -15 -35 -20 -24 -3 9 -5 20 -4 25 4 17 -13 84 -21 84 -5 0 -7
-30 -4 -67 3 -67 3 -68 -12 -39 -13 24 -15 46 -9 115 9 110 9 202 0 321 l-7
95 -41 37 -42 37 3 152 c2 135 1 150 -13 139 -11 -9 -15 -9 -15 -1 0 6 7 14
15 17 8 4 15 18 15 33 l-1 26 -25 -29 c-14 -15 -28 -41 -31 -57 -3 -17 -15
-35 -27 -41 -11 -6 -40 -30 -63 -53 -47 -47 -60 -48 -37 -4 9 18 10 29 4 29
-6 0 -15 -12 -21 -27 l-11 -28 -13 30 c-12 26 -13 27 -14 8 -1 -12 4 -25 9
-28 13 -8 13 -72 0 -80 -18 -11 -32 47 -24 100 4 28 7 83 7 123 -1 51 3 72 12
72 15 0 60 41 67 61 4 12 8 11 25 -3 26 -24 35 -23 31 4 -4 27 -49 35 -71 13
-9 -8 -27 -19 -41 -25 -14 -5 -26 -16 -26 -25 0 -8 -6 -15 -14 -15 -10 0 -13
-21 -14 -90 -1 -79 -4 -95 -29 -137 l-28 -48 -5 85 c-3 51 -8 80 -13 72 -7
-10 -17 -131 -17 -210 0 -7 -5 -10 -11 -7 -7 5 -9 -3 -7 -21 2 -16 -1 -31 -7
-34 -17 -9 -17 47 0 64 9 9 14 26 12 38 l-4 23 -8 -22 c-4 -13 -14 -23 -21
-23 -20 0 -17 64 6 130 25 70 25 79 0 53 -10 -12 -20 -37 -22 -57 -1 -20 -6
-36 -10 -36 -4 0 -8 1 -8 3 0 25 -25 125 -35 141 -7 12 -16 45 -20 75 -6 44
-9 51 -17 36 -6 -9 -8 -38 -4 -62 7 -51 -2 -123 -15 -123 -5 0 -9 62 -9 138 0
116 -3 141 -18 165 -10 15 -22 24 -25 20 -4 -3 -7 -35 -7 -70 0 -35 -4 -63
-10 -63 -5 0 -10 7 -10 16 0 9 -10 38 -22 65 -18 39 -27 48 -41 43 -18 -6 -18
-4 -2 26 17 33 11 58 -6 27 -21 -36 -67 -70 -70 -49 -5 34 -5 80 0 77 4 -2 14
10 24 26 17 30 16 30 -4 24 -13 -5 -25 -2 -31 6 -8 11 -9 10 -4 -3 3 -10 -1
-24 -9 -32 -11 -10 -13 -27 -9 -60 6 -38 4 -46 -10 -46 -11 0 -16 9 -16 30 0
17 -4 30 -10 30 -5 0 -10 -7 -10 -15 0 -8 -9 -16 -20 -16 -11 -1 -25 -2 -31
-3 -6 0 -17 -12 -24 -26 l-14 -25 -1 35 c-1 31 -2 33 -14 18 -7 -10 -16 -18
-20 -18 -8 0 21 57 32 62 18 7 49 65 55 101 8 52 -8 38 -44 -39 -17 -35 -35
-64 -41 -64 -11 0 -3 92 12 125 9 21 57 140 67 165 3 8 -6 2 -21 -15 -14 -16
-30 -47 -36 -67 -18 -63 -33 -59 -28 8 9 99 -19 135 -72 95 -37 -27 -40 -26
-40 5 0 43 -20 16 -21 -29 l-1 -42 -14 55 c-12 47 -11 62 1 107 18 60 18 66 6
58 -6 -3 -14 2 -19 11 -6 11 -11 -4 -15 -53 -4 -38 -13 -87 -21 -109 l-14 -39
-7 44 c-7 35 -10 40 -18 26 -9 -17 -11 -16 -23 6 l-13 24 -1 -25 c-1 -65 -26
-95 -32 -38 -3 32 -28 53 -28 24 0 -33 -20 -14 -26 24 -5 28 -11 40 -24 40
-15 0 -16 13 -13 130 2 77 0 130 -6 130 -5 0 -24 -26 -42 -57 -18 -32 -47 -78
-65 -103 -17 -25 -73 -112 -123 -193 -68 -109 -91 -155 -89 -175 l3 -27 100
-3 100 -3 44 -67 45 -67 4 -368 c2 -274 0 -372 -9 -383 -8 -10 -37 -14 -114
-14 l-103 0 -22 61 c-24 64 -34 73 -72 67 l-23 -4 26 -13 c30 -15 74 -97 58
-107 -6 -3 -166 -4 -357 -2 l-347 3 -3 -24 -4 -23 -29 28 c-16 15 -31 25 -35
22 -9 -10 15 -46 35 -53 29 -9 33 -29 31 -170 0 -95 -5 -138 -16 -160 -20 -38
-28 -85 -15 -85 5 0 11 10 13 22 2 12 9 23 17 26 18 6 6 -45 -16 -70 -13 -15
-13 -16 4 -12 17 5 19 1 15 -25 -2 -17 -9 -31 -15 -31 -6 0 -41 -14 -78 -31
-65 -30 -69 -34 -89 -88 -41 -106 -37 -100 -45 -68 -5 21 -1 41 18 77 19 37
22 50 12 50 -8 0 -17 -5 -20 -10 -3 -6 -23 -18 -44 -29 -50 -23 -97 -17 -105
14 -3 13 -9 31 -12 40 -6 15 -4 16 13 6 17 -8 22 -7 27 5 16 42 -2 73 -22 38
-8 -14 -15 -13 -72 6 -60 20 -90 21 -90 2 0 -5 20 -9 45 -9 28 0 52 -6 61 -15
18 -17 37 -81 35 -118 -2 -71 -18 -168 -32 -193 l-15 -29 -14 72 c-12 63 -12
77 4 126 12 37 15 69 11 95 -10 57 -25 37 -26 -34 0 -34 -4 -71 -9 -82 -7 -18
-10 -16 -24 17 -9 21 -16 44 -16 53 0 8 -5 15 -10 15 -6 0 -25 14 -42 32 -29
30 -30 32 -12 45 10 7 21 13 26 13 4 0 8 5 8 10 0 6 -13 4 -30 -5 -30 -15 -32
-15 -83 19 -28 19 -58 44 -65 55 -7 12 -18 21 -25 21 -7 0 -21 10 -32 22 -21
25 -29 125 -13 167 5 14 5 28 -1 35 -6 7 -12 64 -13 127 l-3 114 -220 2 c-121
1 -333 5 -472 9 l-251 6 -6 132 c-3 72 -7 236 -9 365 l-4 234 49 61 c27 33 53
67 58 75 6 11 31 14 114 12 l106 -2 0 43 c0 24 -6 53 -13 65 -6 12 -41 72 -77
133 -72 123 -117 200 -125 215 -3 6 -7 5 -11 -2 -12 -26 -23 -12 -34 42 -12
60 -25 69 -40 30z m-6 -287 c-3 -12 -12 -28 -20 -35 -7 -7 -15 -26 -19 -43 -4
-17 -11 -28 -16 -24 -14 8 -11 41 7 58 8 9 12 21 9 27 -4 5 1 17 11 24 27 21
36 18 28 -7z m2743 -20 c-3 -8 -6 -5 -6 6 -1 11 2 17 5 13 3 -3 4 -12 1 -19z
m-2917 -48 c0 -5 -2 -10 -4 -10 -3 0 -8 5 -11 10 -3 6 -1 10 4 10 6 0 11 -4
11 -10z m70 -9 c13 -25 13 -34 0 -26 -16 10 -32 45 -21 45 6 0 15 -9 21 -19z
m-3580 -129 c0 -13 -12 -22 -22 -16 -10 6 -1 24 13 24 5 0 9 -4 9 -8z m3241
-225 c-13 -13 -26 -3 -16 12 3 6 11 8 17 5 6 -4 6 -10 -1 -17z m59 9 c0 -3 -4
-8 -10 -11 -5 -3 -10 -1 -10 4 0 6 5 11 10 11 6 0 10 -2 10 -4z m3595 -25
c-16 -32 -35 -49 -35 -31 0 15 31 60 41 60 5 0 3 -13 -6 -29z m-3879 1 c1 -7
0 -8 -3 -2 -10 20 -22 -1 -14 -23 14 -35 17 -101 6 -106 -5 -3 -14 16 -19 42
-6 35 -13 47 -25 47 -24 0 -29 7 -24 34 4 19 11 23 41 21 19 0 37 -6 38 -13z
m3936 6 c9 -27 -8 -73 -30 -83 -15 -6 -21 -16 -18 -27 2 -10 0 -18 -5 -18 -14
0 -11 49 5 78 8 15 17 35 20 45 6 20 22 23 28 5z m123 -5 c-4 -10 -7 -29 -6
-43 1 -22 0 -23 -15 -9 -19 19 -9 69 13 69 11 0 13 -5 8 -17z m-3809 -29 c-4
-9 -9 -15 -11 -12 -3 3 -3 13 1 22 4 9 9 15 11 12 3 -3 3 -13 -1 -22z m-105
-46 c12 -23 -5 -24 -23 -2 -7 8 -21 23 -30 31 -9 9 -14 21 -11 26 6 9 49 -28
64 -55z m129 -3 c0 -19 -4 -35 -10 -35 -11 0 -14 53 -3 63 11 12 13 8 13 -28z
m-361 -32 c1 -21 -17 -15 -24 7 -9 27 6 50 16 24 4 -10 8 -25 8 -31z m158 25
c-3 -8 -6 -5 -6 6 -1 11 2 17 5 13 3 -3 4 -12 1 -19z m4056 -18 c-7 -8 -22 24
-16 34 4 5 10 1 13 -10 4 -10 6 -21 3 -24z m-4263 0 c0 -10 5 -22 10 -25 6 -3
10 -16 10 -28 -1 -18 -4 -16 -20 13 -21 38 -26 75 -10 65 6 -3 10 -15 10 -25z
m80 9 c0 -11 -4 -17 -10 -14 -5 3 -10 13 -10 21 0 8 5 14 10 14 6 0 10 -9 10
-21z m217 -91 c-2 -7 -11 1 -20 19 -24 45 -21 64 4 26 11 -18 19 -38 16 -45z
m-206 49 c-1 -4 -1 -14 -1 -23 0 -8 -4 -12 -10 -9 -13 8 -13 48 1 43 6 -2 10
-7 10 -11z m148 -42 c0 -26 -2 -27 -9 -10 -5 11 -9 31 -9 45 -1 20 1 22 9 10
5 -8 9 -28 9 -45z m-249 2 c0 -5 -7 -4 -15 3 -8 7 -15 20 -15 29 1 13 3 13 15
-3 8 -11 15 -24 15 -29z m-300 -95 c0 -4 8 -36 18 -72 14 -53 15 -73 6 -110
l-11 -45 -11 45 c-6 25 -18 72 -26 105 -9 33 -16 70 -16 83 0 20 3 21 20 12
11 -6 20 -14 20 -18z m4710 -4 c0 -32 -15 -68 -23 -58 -7 9 5 90 14 90 5 0 9
-15 9 -32z m483 -15 c-9 -62 -22 -74 -23 -22 0 25 3 49 7 52 15 16 21 5 16
-30z m-43 -9 c0 -4 -16 -24 -35 -46 -20 -21 -38 -52 -41 -68 -4 -16 -15 -37
-25 -46 -22 -20 -23 -14 -8 40 14 50 109 155 109 120z m0 -103 c0 -54 -2 -58
-22 -56 -30 2 -35 42 -13 90 23 47 35 36 35 -34z m-468 -38 c-8 -104 -23 -123
-18 -23 6 101 4 90 15 90 5 0 6 -30 3 -67z m225 -21 c-2 -15 -6 -34 -10 -42
-3 -8 -8 -31 -10 -50 -2 -19 -5 -5 -5 32 -1 36 1 73 4 82 9 24 24 8 21 -22z
m49 -9 c-7 -17 -8 -17 -17 0 -12 21 -2 44 13 29 6 -6 8 -19 4 -29z m-4880 0
c-10 -10 -19 5 -10 18 6 11 8 11 12 0 2 -7 1 -15 -2 -18z m121 -35 c-2 -13 -4
-5 -4 17 -1 22 1 32 4 23 2 -10 2 -28 0 -40z m4963 -5 c0 -22 -2 -25 -10 -13
-13 20 -13 40 0 40 6 0 10 -12 10 -27z m-5080 -17 c9 -26 3 -66 -11 -66 -5 0
-9 20 -9 45 0 50 6 57 20 21z m4654 -18 c8 -6 8 -8 -1 -8 -6 0 -14 -8 -16 -17
-3 -10 -5 0 -5 22 0 22 2 33 5 25 3 -8 11 -18 17 -22z m296 12 c0 -11 -4 -20
-10 -20 -5 0 -10 9 -10 20 0 11 5 20 10 20 6 0 10 -9 10 -20z m-63 -47 c-3
-10 -5 -4 -5 12 0 17 2 24 5 18 2 -7 2 -21 0 -30z m-4836 -30 c-9 -16 -10 -15
-11 8 0 14 3 29 8 33 12 12 14 -22 3 -41z m-101 -76 c0 -24 -3 -28 -10 -17
-13 20 -13 63 0 55 6 -3 10 -21 10 -38z m-143 11 c-3 -8 -6 -5 -6 6 -1 11 2
17 5 13 3 -3 4 -12 1 -19z m-257 -128 c-4 -8 -5 -21 -3 -27 3 -7 0 -13 -5 -13
-15 0 -45 64 -32 68 5 2 7 8 4 13 -3 6 2 22 12 37 l19 27 6 -45 c4 -25 3 -52
-1 -60z m6606 53 c-10 -10 -19 5 -10 18 6 11 8 11 12 0 2 -7 1 -15 -2 -18z
m-7450 -60 c-6 -6 -36 52 -36 69 1 7 10 -4 21 -25 11 -22 18 -41 15 -44z
m7144 44 c-1 -21 -1 -21 -15 -3 -8 10 -12 23 -9 28 9 14 24 -2 24 -25z m344
-24 c3 -32 9 -77 12 -100 4 -25 2 -43 -4 -43 -5 0 -26 -11 -46 -25 -41 -28
-51 -11 -11 19 14 11 25 29 25 42 0 12 5 26 10 29 7 4 7 12 0 25 -12 23 -13
110 -1 110 5 0 11 -26 15 -57z m-7569 37 c3 -5 -1 -10 -9 -10 -9 0 -16 5 -16
10 0 6 4 10 9 10 6 0 13 -4 16 -10z m345 -50 c-6 -4 -11 -10 -11 -14 1 -3 -1
-6 -4 -6 -3 0 -5 2 -5 5 0 3 0 22 0 43 l1 37 15 -29 c12 -21 13 -30 4 -36z
m7077 -23 c2 -45 -2 -89 -7 -97 -7 -10 -10 16 -10 83 0 118 14 130 17 14z
m-106 30 c-17 -17 -24 -1 -10 25 12 21 14 21 17 4 2 -10 -1 -23 -7 -29z
m-6508 2 c-5 -26 -3 -30 13 -27 14 2 18 -2 16 -17 -2 -11 -6 -53 -9 -92 -7
-85 -23 -90 -18 -5 2 33 -3 75 -11 100 -12 34 -13 47 -3 58 17 21 19 18 12
-17z m6399 -36 c20 -57 18 -187 -2 -206 -13 -12 -13 -10 7 56 6 19 5 20 -10 8
-16 -13 -30 -61 -35 -123 -1 -10 -6 -18 -11 -18 -15 0 -34 128 -27 186 6 50
42 144 56 144 3 0 13 -21 22 -47z m-6934 25 c15 -15 16 -62 1 -52 -8 4 -9 -1
-4 -16 5 -16 4 -20 -5 -15 -17 10 -29 50 -23 74 6 24 14 26 31 9z m-241 -15
c6 -18 53 -101 85 -151 26 -42 22 -60 -6 -33 l-25 23 -4 -38 c-2 -22 -3 -14
-1 17 3 42 -2 64 -17 90 -11 19 -25 46 -32 62 -6 15 -19 27 -30 27 -10 0 -15
5 -12 10 10 16 35 12 42 -7z m7293 -21 c0 -4 -7 -16 -15 -26 -22 -29 -40 -7
-19 22 14 20 35 22 34 4z m-6940 -38 c0 -13 -5 -24 -11 -24 -7 0 -9 10 -5 26
6 23 5 24 -14 14 -16 -8 -20 -8 -20 4 0 8 6 16 13 19 18 7 37 -13 37 -39z
m6687 26 c-4 -15 0 -20 14 -20 20 0 27 -34 9 -45 -6 -4 -6 -15 0 -31 6 -14 10
-46 10 -72 0 -26 6 -69 13 -97 10 -39 11 -55 1 -73 -7 -15 -14 -20 -18 -13 -4
6 -4 15 -1 21 3 6 -1 7 -9 4 -10 -4 -16 -1 -16 7 0 8 -20 54 -45 103 -44 88
-55 129 -35 141 5 3 15 -5 22 -20 6 -14 16 -24 22 -22 17 6 6 50 -15 65 -26
18 -24 27 14 51 40 26 41 26 34 1z m-6927 -38 c0 -27 -3 -33 -10 -22 -5 8 -7
23 -4 33 3 9 0 17 -6 17 -6 0 -8 5 -5 10 12 19 25 -1 25 -38z m3107 6 c-3 -8
-6 -5 -6 6 -1 11 2 17 5 13 3 -3 4 -12 1 -19z m-2893 -30 c6 -28 2 -48 -8 -37
-10 11 -17 69 -8 69 5 0 12 -14 16 -32z m-128 -35 l-15 -28 -1 36 c0 41 10 57
22 34 6 -9 3 -25 -6 -42z m71 45 c-2 -7 0 -21 5 -30 5 -10 6 -18 2 -18 -12 0
-32 34 -27 47 7 17 26 17 20 1z m2989 -65 c3 -24 2 -64 -2 -90 -9 -46 -10 -48
-44 -48 l-35 0 1 83 c1 63 5 87 19 102 25 28 53 7 61 -47z m-2387 41 c17 -18
21 -72 6 -84 -8 -6 -16 -21 -19 -33 -3 -12 -3 -2 -2 23 2 25 5 52 7 60 2 8 -2
15 -8 16 -7 1 -17 2 -23 3 -5 0 -10 8 -10 16 0 16 34 16 49 -1z m-385 -36 c19
-36 15 -44 -12 -29 -14 7 -18 17 -15 36 3 14 7 25 8 25 2 0 11 -14 19 -32z
m99 26 c3 -4 -1 -20 -9 -37 -12 -23 -18 -27 -25 -16 -14 22 -11 39 7 39 8 0
12 5 9 10 -7 11 8 14 18 4z m87 -6 c0 -10 2 -10 9 0 12 20 61 -41 54 -68 -3
-11 -8 -20 -11 -20 -14 0 -89 89 -79 94 21 8 27 6 27 -6z m6760 -8 c10 -6 11
-10 3 -10 -7 0 -14 -12 -14 -27 l-2 -28 -4 28 c-2 15 -9 27 -14 27 -5 0 -9 5
-9 10 0 13 20 13 40 0z m-53 -37 c-3 -10 -5 -4 -5 12 0 17 2 24 5 18 2 -7 2
-21 0 -30z m-7156 -16 c-8 -8 -11 -5 -11 9 0 27 14 41 18 19 2 -9 -1 -22 -7
-28z m63 28 c3 -8 1 -15 -4 -15 -6 0 -10 7 -10 15 0 8 2 15 4 15 2 0 6 -7 10
-15z m373 -37 c41 -65 53 -88 43 -88 -5 0 -7 -7 -4 -15 5 -11 2 -13 -10 -9 -9
3 -16 17 -16 30 0 14 -11 42 -25 64 -24 37 -31 60 -20 60 3 0 17 -19 32 -42z
m6058 12 c3 -11 13 -20 21 -20 18 0 18 1 -8 -57 -19 -43 -22 -45 -26 -23 -2
14 -8 31 -14 37 -12 14 -2 83 12 83 5 0 12 -9 15 -20z m769 -24 c21 -44 20
-49 -4 -41 -17 5 -20 2 -20 -24 0 -17 -4 -31 -10 -31 -5 0 -8 13 -7 30 1 16 6
30 10 30 4 0 5 16 1 35 -8 45 9 46 30 1z m-200 -43 c-3 -64 -3 -63 -14 -63
-11 0 -14 78 -4 104 11 29 20 9 18 -41z m106 -93 c4 0 10 6 13 13 3 9 8 9 21
-2 14 -12 16 -24 10 -75 -8 -70 -20 -100 -39 -93 -8 4 -12 -3 -12 -19 0 -13 5
-24 11 -24 11 0 -14 -20 -26 -20 -5 0 -4 160 4 320 2 46 3 42 5 -22 2 -43 8
-78 13 -78z m-7137 88 c6 -40 4 -48 -10 -48 -9 0 -13 3 -10 6 3 4 2 14 -3 24
-5 10 -6 21 -2 25 7 6 8 11 11 37 2 21 8 3 14 -44z m-162 11 c-12 -13 -21 -19
-21 -14 0 11 32 46 38 41 2 -3 -5 -15 -17 -27z m660 -2 c-8 -8 -11 -7 -11 4 0
9 3 19 7 23 4 4 9 2 11 -4 3 -7 -1 -17 -7 -23z m6454 -13 c-8 -16 -15 -23 -15
-16 0 13 22 53 27 48 2 -2 -3 -16 -12 -32z m215 12 c0 -2 -7 -9 -15 -16 -13
-11 -14 -10 -9 4 5 14 24 23 24 12z m-6783 -58 c-3 -7 -5 -2 -5 12 0 14 2 19
5 13 2 -7 2 -19 0 -25z m156 7 c-3 -8 0 -15 6 -15 6 0 11 -4 11 -10 0 -5 -4
-10 -10 -10 -13 0 -32 38 -25 50 9 15 25 2 18 -15z m103 -43 c-11 -10 -15 4
-8 28 l7 25 3 -23 c2 -13 1 -26 -2 -30z m6298 16 c0 -18 -7 -34 -14 -36 -9 -3
-11 1 -7 12 4 10 7 26 7 37 0 10 3 19 8 19 4 0 7 -14 6 -32z m-7084 12 c0 -5
-5 -10 -11 -10 -5 0 -7 5 -4 10 3 6 8 10 11 10 2 0 4 -4 4 -10z m426 -16 c-4
-9 -9 -15 -11 -12 -3 3 -3 13 1 22 4 9 9 15 11 12 3 -3 3 -13 -1 -22z m4697
-4 c3 -11 1 -20 -4 -20 -5 0 -9 4 -9 9 0 5 -3 17 -7 27 -4 11 -3 15 4 11 6 -4
13 -16 16 -27z m-4963 -10 c0 -5 -4 -10 -10 -10 -5 0 -10 5 -10 10 0 6 5 10
10 10 6 0 10 -4 10 -10z m7312 -20 c-4 -25 -42 -83 -50 -75 -2 2 -1 12 3 22 5
10 7 21 7 26 -1 4 3 7 8 7 6 0 10 12 10 26 0 16 5 24 13 21 6 -2 10 -14 9 -27z
m-6821 -13 c-8 -8 -11 -7 -11 4 0 9 3 19 7 23 4 4 9 2 11 -4 3 -7 -1 -17 -7
-23z m2622 3 c14 -16 29 -30 34 -30 4 0 23 -14 41 -31 32 -30 35 -56 5 -45
-11 5 -13 2 -9 -10 3 -8 6 -22 6 -30 0 -8 5 -14 10 -14 6 0 10 6 10 13 0 6 4
18 9 25 23 37 92 -61 116 -166 10 -42 10 -60 0 -90 l-13 -37 -18 38 c-15 31
-16 42 -6 57 14 23 15 30 4 30 -4 0 -12 -10 -17 -22 -15 -33 -27 -31 -63 15
-26 31 -33 48 -29 71 3 20 -6 47 -27 86 -44 81 -85 140 -96 140 -6 0 -10 7
-10 15 0 25 26 17 53 -15z m3297 16 c0 -9 -31 -76 -35 -76 -2 0 -3 6 -1 13 3
6 7 24 10 40 4 15 11 27 16 27 6 0 10 -2 10 -4z m-3302 -81 c54 -89 54 -157 0
-108 -10 9 -18 12 -18 6 0 -5 9 -18 21 -29 13 -12 19 -27 16 -42 -3 -18 0 -26
14 -29 20 -6 27 -23 9 -23 -5 0 -10 -9 -10 -20 0 -11 -4 -20 -10 -20 -5 0 -10
4 -10 10 0 5 -13 25 -30 43 -30 34 -30 36 -30 151 0 64 3 116 8 116 4 0 22
-25 40 -55z m3483 2 c-8 -8 -11 -4 -11 14 0 33 14 47 18 19 2 -12 -1 -27 -7
-33z m-272 5 c0 -24 -1 -25 -9 -7 -12 28 -12 47 0 40 6 -3 10 -18 9 -33z m381
23 c0 -8 -4 -15 -10 -15 -5 0 -7 7 -4 15 4 8 8 15 10 15 2 0 4 -7 4 -15z m220
-10 c0 -14 -4 -25 -10 -25 -11 0 -14 33 -3 43 11 11 13 8 13 -18z m299 -31 c2
30 10 14 27 -51 15 -58 14 -62 -7 -107 -27 -57 -35 -54 -15 5 20 55 20 52 -3
77 -26 31 -31 28 -31 -21 0 -40 -18 -97 -30 -97 -4 0 -4 16 -2 35 2 19 8 35
13 35 5 0 6 7 3 15 -3 8 -1 29 5 47 5 18 11 49 12 68 4 53 13 60 20 15 3 -22
7 -31 8 -21z m-788 9 c-10 -17 -10 -16 -11 3 0 23 13 41 18 25 2 -6 -1 -18 -7
-28z m125 22 c-3 -20 -16 -31 -16 -13 0 13 8 28 16 28 1 0 1 -7 0 -15z m295
-37 c-9 -31 -9 -31 -10 -6 -1 30 11 67 16 51 2 -6 0 -26 -6 -45z m-7101 5 c0
-22 -2 -25 -10 -13 -13 20 -13 40 0 40 6 0 10 -12 10 -27z m7580 8 c0 -6 -5
-13 -11 -17 -8 -5 -8 -9 1 -14 7 -4 2 -13 -16 -25 l-27 -17 7 28 c8 32 24 54
37 54 5 0 9 -4 9 -9z m-8369 -63 l31 -62 -17 -51 c-10 -27 -21 -54 -25 -59
-13 -14 -22 32 -11 53 15 28 14 64 -4 87 -13 17 -22 94 -10 94 3 0 19 -28 36
-62z m4878 -21 c-8 -11 -81 33 -76 46 2 6 19 16 38 22 l34 12 5 -36 c3 -20 3
-40 -1 -44z m2791 40 c0 -5 -4 -5 -10 -2 -5 3 -10 14 -10 23 0 15 2 15 10 2 5
-8 10 -19 10 -23z m1480 -1 c0 -7 -8 -24 -18 -37 -10 -13 -24 -39 -31 -56 -7
-18 -17 -30 -22 -27 -5 3 -2 18 6 34 8 16 15 35 15 42 0 18 28 58 41 58 5 0 9
-6 9 -14z m-9211 -78 c0 -46 -3 -77 -6 -70 -2 6 -9 12 -14 12 -16 0 -9 -43 16
-94 12 -28 21 -56 19 -63 -14 -46 -15 -46 -36 -7 -24 44 -27 126 -8 222 22
111 30 111 29 0z m7802 55 c-8 -15 -10 -15 -11 -2 0 17 10 32 18 25 2 -3 -1
-13 -7 -23z m-221 0 c0 -10 -5 -25 -10 -33 -7 -11 -10 -7 -10 18 0 17 5 32 10
32 6 0 10 -8 10 -17z m412 -37 c-9 -18 -11 -16 -11 19 0 33 1 37 10 21 8 -12
8 -25 1 -40z m-3158 22 c-4 -13 -10 -38 -15 -56 -4 -18 -11 -38 -17 -45 -5 -7
-8 -40 -7 -74 2 -35 0 -65 -4 -67 -4 -3 -16 18 -26 46 -11 31 -14 53 -8 55 5
2 7 17 5 34 -6 42 35 129 60 129 16 0 18 -5 12 -22z m2886 12 c0 -5 -2 -10 -4
-10 -3 0 -8 5 -11 10 -3 6 -1 10 4 10 6 0 11 -4 11 -10z m-6913 -22 c-3 -8 -6
-5 -6 6 -1 11 2 17 5 13 3 -3 4 -12 1 -19z m7110 0 c-3 -8 -6 -5 -6 6 -1 11 2
17 5 13 3 -3 4 -12 1 -19z m-3015 -14 l37 -26 -24 -32 c-13 -17 -26 -42 -30
-56 -8 -29 -65 -80 -65 -57 0 7 3 16 6 19 5 6 14 81 18 151 1 34 10 34 58 1z
m4308 -42 c0 -107 -13 -233 -24 -229 -6 2 -12 13 -14 25 -2 12 -8 22 -13 22
-5 0 -9 5 -9 11 0 5 4 8 9 5 5 -3 5 13 -1 37 -10 47 -4 93 19 143 23 47 33 43
33 -14z m-4591 2 c-9 -11 -15 -12 -23 -4 -8 8 -6 15 9 26 23 17 34 2 14 -22z
m69 9 c-21 -53 -43 -93 -50 -93 -4 0 -12 9 -18 19 -11 21 -4 51 12 51 6 0 19
11 30 25 26 33 40 32 26 -2z m-421 -15 c-3 -7 -5 -2 -5 12 0 14 2 19 5 13 2
-7 2 -19 0 -25z m323 -33 c0 -8 -4 -17 -10 -20 -6 -4 -10 5 -10 20 0 15 4 24
10 20 6 -3 10 -12 10 -20z m3634 -58 c5 -27 4 -37 -3 -32 -7 4 -11 -9 -10 -37
1 -39 2 -40 8 -13 7 30 7 30 13 -10 6 -44 2 -57 -12 -36 -5 9 -8 3 -8 -20 0
-19 -5 -45 -11 -59 -8 -19 -10 11 -10 120 1 178 11 205 33 87z m-8094 13 c-1
-33 -37 -77 -52 -62 -6 6 -7 16 -2 24 5 7 9 15 10 18 0 3 4 13 7 23 4 9 9 25
13 34 4 15 6 15 14 3 6 -8 10 -26 10 -40z m7480 17 c0 -5 -4 -5 -10 -2 -5 3
-10 14 -10 23 0 15 2 15 10 2 5 -8 10 -19 10 -23z m774 -13 c4 -29 2 -52 -5
-60 -9 -10 -9 -14 0 -14 6 0 11 -11 11 -25 0 -32 -27 -34 -32 -2 -2 12 -12 26
-24 31 l-21 9 26 53 c14 29 29 53 32 53 4 1 9 -20 13 -45z m-3679 -57 c0 -92
-8 -113 -19 -47 -5 29 -10 38 -21 34 -16 -7 -22 21 -6 30 5 3 12 22 15 42 4
21 12 34 19 31 8 -2 12 -32 12 -90z m4419 29 c1 -48 -1 -52 -17 -42 -26 16
-30 41 -12 76 21 41 29 32 29 -34z m-4188 27 c-10 -10 -19 5 -10 18 6 11 8 11
12 0 2 -7 1 -15 -2 -18z m-4916 -4 c0 -6 -4 -7 -10 -4 -5 3 -10 11 -10 16 0 6
5 7 10 4 6 -3 10 -11 10 -16z m8251 -27 c-4 -54 -11 -53 -11 3 0 27 3 45 7 41
4 -4 6 -24 4 -44z m-8045 -41 c-4 -6 -14 -11 -23 -11 -9 0 -13 3 -10 7 4 3 1
13 -7 22 -7 9 -17 27 -21 41 -6 23 -4 22 30 -11 21 -20 34 -42 31 -48z m3968
47 c9 -18 23 -44 31 -58 15 -26 20 -80 8 -80 -5 1 -19 23 -32 50 -13 28 -28
50 -33 50 -4 0 -8 16 -8 35 0 44 11 45 34 3z m107 -50 c8 -71 5 -80 -16 -52
-18 24 -21 144 -3 126 6 -6 15 -40 19 -74z m318 15 c1 -16 -5 -23 -17 -23 -10
0 -23 -5 -30 -12 -9 -9 -12 -8 -12 5 0 9 7 17 15 17 11 0 14 7 9 25 -4 15 -1
32 7 41 12 15 14 14 20 -7 4 -13 7 -34 8 -46z m3831 22 c-11 -29 4 -43 19 -18
13 23 13 16 0 -49 -16 -81 -21 -88 -32 -48 -16 59 -7 158 13 145 6 -3 6 -15 0
-30z m571 23 c1 -7 1 -20 0 -28 -2 -13 -1 -13 8 0 17 25 25 2 13 -39 -7 -21
-13 -58 -13 -82 -1 -24 -5 -57 -9 -74 -7 -24 -8 -17 -8 30 1 33 -2 76 -6 95
-5 19 -7 46 -7 59 1 17 -3 22 -14 17 -20 -7 -19 4 3 20 22 17 32 17 33 2z
m-8981 -18 c0 -5 -4 -10 -10 -10 -5 0 -10 5 -10 10 0 6 5 10 10 10 6 0 10 -4
10 -10z m348 -30 c19 -39 19 -41 2 -63 l-18 -22 -18 37 c-15 33 -16 41 -4 63
7 14 14 25 16 25 1 0 11 -18 22 -40z m4555 -6 c-1 -21 -2 -42 -2 -45 -1 -8
-49 -59 -56 -59 -15 0 7 110 28 138 18 23 32 6 30 -34z m3997 -14 c-9 -14 -20
-34 -24 -45 -6 -16 -9 -17 -16 -5 -16 25 -12 90 5 90 8 0 15 5 15 10 0 6 8 2
18 -7 18 -17 18 -19 2 -43z m-8458 -17 c-9 -18 -19 -33 -23 -33 -19 0 -18 23
2 62 19 37 23 40 29 23 4 -12 1 -34 -8 -52z m4272 -35 c-12 -19 -24 6 -23 50
l1 47 14 -44 c7 -24 11 -48 8 -53z m-4604 51 c0 -11 -4 -17 -10 -14 -5 3 -10
15 -10 26 0 11 5 17 10 14 6 -3 10 -15 10 -26z m158 11 c-14 -22 -24 -25 -33
-10 -5 8 17 23 43 29 1 1 -3 -8 -10 -19z m8807 -40 c11 -21 12 -41 4 -96 -6
-38 -11 -93 -11 -122 -2 -84 -23 -83 -24 1 0 40 -6 109 -14 153 -15 91 -10
125 16 103 8 -7 22 -25 29 -39z m-8397 10 c-2 -31 -13 -40 -21 -17 -4 12 9 47
19 47 2 0 3 -13 2 -30z m3664 -79 c10 -24 16 -46 13 -49 -10 -11 -40 42 -52
93 -16 67 -15 77 4 35 8 -19 24 -55 35 -79z m4469 72 c6 -57 -4 -121 -15 -104
-11 16 -18 120 -10 133 11 18 22 6 25 -29z m-8761 19 c0 -5 -6 -16 -13 -27
-16 -20 -31 -7 -21 19 6 16 34 23 34 8z m4770 -2 c0 -5 -5 -10 -11 -10 -5 0
-7 5 -4 10 3 6 8 10 11 10 2 0 4 -4 4 -10z m-4586 -16 c11 -30 6 -37 -14 -19
-11 10 -20 22 -20 27 0 15 28 9 34 -8z m4382 0 c-4 -9 -1 -23 5 -31 7 -7 9
-16 6 -19 -9 -10 -27 34 -21 50 3 9 8 16 11 16 3 0 2 -7 -1 -16z m4078 -26
c18 -25 21 -64 6 -73 -5 -3 -11 -21 -11 -38 -1 -27 -3 -25 -11 16 -15 68 -32
61 -25 -10 4 -32 9 -73 13 -92 5 -22 4 -32 -3 -28 -6 4 -13 33 -17 64 -3 32
-13 80 -21 107 -19 64 -19 84 3 89 23 5 47 -8 66 -35z m226 -1 c-9 -43 -42
-97 -47 -80 -5 13 45 128 52 121 2 -2 0 -20 -5 -41z m-8830 13 c0 -5 8 -6 18
-3 15 6 16 5 2 -12 -8 -11 -23 -27 -32 -37 -10 -10 -18 -27 -18 -37 0 -11 -4
-23 -10 -26 -13 -8 -13 -1 6 67 9 32 21 58 25 58 5 0 9 -4 9 -10z m4710 -45
l0 -30 -20 30 c-14 22 -16 32 -8 43 15 18 28 -2 28 -43z m360 27 c0 -15 -2
-15 -10 -2 -13 20 -13 33 0 25 6 -3 10 -14 10 -23z m3138 -62 c0 -35 0 -35
-15 12 -10 27 -13 53 -8 65 7 15 9 14 15 -12 4 -16 8 -46 8 -65z m-8118 70 c0
-5 -2 -10 -4 -10 -3 0 -8 5 -11 10 -3 6 -1 10 4 10 6 0 11 -4 11 -10z m140
-33 c0 -6 -9 0 -20 13 -11 13 -20 25 -20 28 0 3 9 -3 20 -13 11 -10 20 -23 20
-28z m70 -8 c0 -19 -4 -28 -11 -24 -6 4 -8 14 -5 22 3 8 1 11 -4 8 -12 -7 -12
-3 -4 19 9 24 24 9 24 -25z m246 14 c-3 -10 -15 -24 -26 -31 -20 -12 -21 -12
-9 10 25 48 48 62 35 21z m7601 -5 c-3 -7 -5 -2 -5 12 0 14 2 19 5 13 2 -7 2
-19 0 -25z m-4102 12 c3 -5 1 -10 -4 -10 -6 0 -11 5 -11 10 0 6 2 10 4 10 3 0
8 -4 11 -10z m-3942 -22 c4 -12 2 -25 -4 -28 -5 -4 -7 -15 -3 -26 5 -16 4 -16
-5 -4 -13 18 -15 80 -2 80 5 0 11 -10 14 -22z m253 -5 c-10 -10 -19 5 -10 18
6 11 8 11 12 0 2 -7 1 -15 -2 -18z m3801 -23 c-1 -22 -4 -40 -8 -40 -11 0 -19
43 -13 68 9 34 23 16 21 -28z m-4237 3 c0 -7 -4 -13 -10 -13 -5 0 -10 12 -10
28 0 21 2 24 10 12 5 -8 10 -21 10 -27z m288 -8 c-3 -3 -13 7 -23 22 l-17 28
23 -22 c12 -12 20 -25 17 -28z m8545 15 c-7 -28 -13 -25 -13 6 0 14 4 23 9 20
5 -3 7 -15 4 -26z m-8183 -30 c6 -31 4 -43 -6 -47 -8 -3 -14 -20 -14 -42 0
-25 -3 -32 -9 -22 -5 8 -7 19 -5 26 3 6 -2 17 -10 24 -13 11 -17 7 -31 -24 -8
-21 -15 -41 -15 -46 0 -5 -4 -9 -10 -9 -5 0 -10 2 -10 5 0 11 28 65 58 108 17
27 32 56 32 65 0 27 12 4 20 -38z m8495 28 c6 -4 2 -8 -7 -8 -10 0 -18 7 -18
17 0 9 3 12 8 7 4 -5 12 -12 17 -16z m-4735 -5 c0 -10 3 -29 6 -43 6 -24 6
-25 -9 -5 -18 22 -23 65 -7 65 6 0 10 -8 10 -17z m242 -5 c-7 -7 -12 -8 -12
-2 0 14 12 26 19 19 2 -3 -1 -11 -7 -17z m-4722 -46 c0 -20 -4 -31 -10 -27 -5
3 -10 25 -10 48 0 31 3 38 10 27 5 -8 10 -30 10 -48z m520 48 c0 -5 -4 -10
-10 -10 -5 0 -10 5 -10 10 0 6 5 10 10 10 6 0 10 -4 10 -10z m7813 -67 c5 -76
3 -92 -9 -81 -11 11 -17 158 -7 158 6 0 13 -35 16 -77z m117 -32 c-4 -8 -5
-23 -3 -35 4 -19 3 -19 -7 -3 -10 15 -15 77 -10 132 1 11 7 -2 15 -30 7 -27
10 -56 5 -64z m-8144 24 c-16 -24 -34 -36 -20 -13 4 6 7 27 6 46 -2 35 -1 35
14 13 14 -20 14 -24 0 -46z m4591 43 c-3 -8 -6 -5 -6 6 -1 11 2 17 5 13 3 -3
4 -12 1 -19z m4083 -24 c-18 -21 -24 -10 -9 18 8 14 14 18 17 10 2 -7 -2 -19
-8 -28z m-8486 10 c11 -28 6 -39 -9 -20 -8 11 -15 23 -15 28 0 14 18 9 24 -8z
m4353 -16 c-3 -8 -6 -5 -6 6 -1 11 2 17 5 13 3 -3 4 -12 1 -19z m4066 -8 c-3
-11 -9 -20 -14 -20 -10 0 -11 12 -3 34 9 22 23 10 17 -14z m-291 -7 c30 -32
68 -101 68 -123 0 -8 -18 12 -40 46 -21 33 -51 66 -65 72 -14 7 -23 17 -20 22
11 17 30 11 57 -17z m180 -15 c-10 -22 -11 -21 -11 12 -1 26 2 31 11 22 8 -8
8 -17 0 -34z m-8592 16 c0 -8 -5 -12 -10 -9 -6 4 -8 11 -5 16 9 14 15 11 15
-7z m600 -4 c0 -5 -2 -10 -4 -10 -3 0 -8 5 -11 10 -3 6 -1 10 4 10 6 0 11 -4
11 -10z m8154 -15 c3 -8 1 -15 -4 -15 -6 0 -10 7 -10 15 0 8 2 15 4 15 2 0 6
-7 10 -15z m-4764 -10 c0 -8 -4 -15 -10 -15 -5 0 -10 7 -10 15 0 8 5 15 10 15
6 0 10 -7 10 -15z m-3933 -17 c-3 -8 -6 -5 -6 6 -1 11 2 17 5 13 3 -3 4 -12 1
-19z m8328 -25 c27 -41 33 -68 11 -60 -8 3 -19 -5 -27 -21 -13 -26 -14 -24
-19 38 -8 94 -3 99 35 43z m-8265 -14 c0 -5 -4 -9 -10 -9 -5 0 -10 7 -10 16 0
8 5 12 10 9 6 -3 10 -10 10 -16z m4570 -23 c-14 -14 -22 -2 -14 18 5 14 9 15
15 4 4 -7 4 -17 -1 -22z m3600 -23 c0 -33 -3 -44 -11 -36 -9 9 -3 83 7 83 2 0
4 -21 4 -47z m-131 -18 c0 -5 -6 -1 -14 9 -8 11 -15 27 -15 35 1 17 29 -26 29
-44z m-1889 21 c0 -11 -19 -15 -25 -6 -3 5 1 10 9 10 9 0 16 -2 16 -4z m-2900
-63 c0 -7 -7 -13 -15 -13 -16 0 -19 9 -9 35 5 13 8 14 15 3 5 -7 9 -19 9 -25z
m1379 -102 c22 -14 5 -41 -27 -41 -18 0 -38 -10 -56 -29 -29 -31 -51 -100 -36
-115 5 -5 33 -9 62 -10 40 -1 53 -5 56 -17 2 -13 -10 -18 -60 -25 l-63 -9 -2
-140 c-3 -164 -7 -185 -32 -185 -17 0 -18 11 -17 158 l1 157 -42 3 c-35 3 -43
7 -43 22 0 19 11 24 65 32 16 3 22 16 31 61 10 47 32 116 38 117 0 0 19 7 41
15 47 17 65 18 84 6z m1168 -30 c15 -40 62 -63 113 -55 45 7 90 37 90 60 0 8
7 14 15 14 34 0 10 -62 -33 -84 -82 -43 -182 -23 -208 40 -17 41 -18 54 -1 54
7 0 18 -13 24 -29z m-2917 -91 l5 -55 55 -5 c47 -4 55 -8 55 -25 0 -17 -8 -21
-45 -23 -25 -2 -49 -7 -53 -11 -5 -5 -9 -73 -10 -152 -2 -141 -3 -144 -24
-147 -22 -3 -22 -2 -25 150 l-3 153 -47 5 c-54 7 -63 13 -54 35 4 12 16 16 44
14 55 -4 64 5 56 56 -7 49 0 68 24 63 13 -2 18 -17 22 -58z m-225 -74 c4 -25
4 -49 0 -55 -12 -20 -33 -11 -39 15 -6 23 -11 26 -37 20 -69 -13 -131 -59
-115 -85 3 -4 31 -13 63 -21 76 -17 123 -61 123 -117 0 -21 -7 -48 -15 -60
-29 -42 -134 -55 -205 -27 -31 13 -40 21 -40 40 0 26 27 33 47 13 5 -5 35 -13
65 -16 48 -5 57 -2 83 20 28 24 29 25 12 50 -21 32 -37 41 -105 57 -69 16 -90
44 -74 99 13 41 36 57 132 90 89 30 98 28 105 -23z m-1097 -19 c3 -52 12 -58
39 -24 48 61 111 75 139 32 15 -24 18 -24 34 -10 42 38 131 41 150 6 14 -28
50 -325 40 -335 -22 -22 -38 4 -45 71 -15 164 -24 206 -44 227 -21 20 -22 20
-56 2 -68 -37 -70 -41 -55 -177 13 -124 8 -148 -23 -136 -11 4 -16 38 -22 151
-8 158 -17 187 -53 167 -11 -6 -38 -32 -59 -58 -37 -45 -38 -48 -39 -135 -2
-92 -13 -123 -36 -99 -10 9 -13 57 -11 181 1 93 4 174 8 180 14 23 30 2 33
-43z m3710 28 c3 -11 -21 -43 -67 -89 l-70 -71 59 -79 c64 -84 72 -106 40
-106 -12 0 -40 26 -75 70 -31 39 -59 70 -63 70 -4 0 -37 -29 -72 -65 -66 -67
-86 -77 -97 -49 -4 11 17 39 67 89 l73 74 -38 56 c-21 31 -45 61 -52 67 -20
16 -16 48 6 48 13 0 37 -24 68 -65 26 -36 50 -65 53 -65 3 0 37 32 75 70 70
70 87 79 93 45z m1190 -164 l2 -182 -22 3 c-21 3 -23 9 -28 78 l-5 75 -77 -2
c-43 -1 -85 -6 -95 -12 -13 -6 -21 -30 -28 -78 -7 -49 -14 -68 -25 -68 -13 0
-15 27 -15 180 0 173 1 180 20 180 18 0 21 -8 25 -80 l5 -80 79 4 c120 5 111
-1 114 77 2 37 8 74 14 81 27 33 33 4 36 -176z m-4173 145 c18 -12 19 -23 17
-122 -3 -82 0 -118 12 -146 9 -21 16 -44 16 -53 0 -21 -23 -19 -44 4 -17 19
-18 19 -63 -1 -74 -33 -152 -9 -177 54 -35 86 -9 203 56 249 54 39 135 46 183
15z m1034 1 c22 -11 26 -18 26 -57 l0 -45 -109 -55 c-60 -30 -111 -60 -113
-66 -2 -6 11 -24 29 -39 29 -24 38 -27 95 -23 47 3 68 9 86 26 31 29 59 29 55
0 -5 -37 -78 -68 -158 -68 -116 0 -169 60 -157 176 14 140 126 209 246 151z
m387 0 c3 -13 4 -41 2 -63 -4 -51 -32 -54 -36 -4 -2 19 -7 38 -11 42 -15 16
-80 -14 -115 -52 l-36 -40 0 -110 c0 -103 -1 -110 -20 -110 -19 0 -20 7 -20
175 0 168 1 175 20 175 13 0 20 -7 20 -20 0 -26 9 -25 66 5 27 14 64 25 85 25
32 0 40 -4 45 -23z m2059 -107 c4 -72 11 -133 15 -135 10 -6 84 75 162 178 47
61 65 77 81 75 22 -3 22 -6 22 -173 0 -163 -1 -170 -20 -170 -19 0 -20 8 -23
110 -1 60 -7 114 -11 118 -5 5 -31 -20 -60 -59 -43 -59 -128 -143 -168 -167
-6 -4 -18 -4 -27 -1 -14 5 -16 30 -16 180 0 165 1 174 19 174 18 0 20 -11 26
-130z m1035 111 c6 -11 10 -87 10 -176 l0 -156 -22 3 c-20 3 -23 10 -26 51 -5
75 -25 73 -135 -9 -57 -44 -81 -53 -91 -35 -11 17 4 36 54 70 47 32 62 51 41
51 -5 0 -23 12 -40 26 -73 61 -14 159 112 184 68 13 86 11 97 -9z m-2565 -17
c30 -32 49 -113 41 -171 -16 -121 -107 -182 -202 -137 -100 48 -97 254 5 318
15 9 48 16 79 16 44 0 57 -4 77 -26z m1153 -21 c17 -27 45 -78 63 -115 18 -38
37 -68 42 -68 4 0 20 26 33 58 53 118 82 167 103 170 14 2 21 -2 21 -13 0 -8
-37 -93 -81 -188 -45 -94 -94 -206 -109 -247 -21 -58 -31 -75 -46 -75 -30 0
-27 33 14 129 l38 90 -73 139 c-40 76 -73 145 -73 153 0 32 39 13 68 -33z
m2628 -61 c-4 -3 -14 2 -24 12 -16 18 -16 18 6 6 13 -6 21 -14 18 -18z"/>
<path d="M1581 1984 c0 -11 3 -14 6 -6 3 7 2 16 -1 19 -3 4 -6 -2 -5 -13z"/>
<path d="M4570 1860 c0 -5 5 -10 11 -10 5 0 7 5 4 10 -3 6 -8 10 -11 10 -2 0
-4 -4 -4 -10z"/>
<path d="M4580 1825 c0 -8 5 -15 10 -15 6 0 10 7 10 15 0 8 -4 15 -10 15 -5 0
-10 -7 -10 -15z"/>
<path d="M8769 1650 c-5 -24 -4 -52 2 -55 12 -8 20 26 9 43 -5 10 -10 15 -11
12z"/>
<path d="M8742 1610 c0 -19 2 -27 5 -17 2 9 2 25 0 35 -3 9 -5 1 -5 -18z"/>
<path d="M4862 1467 c-6 -7 -9 -23 -5 -35 4 -18 8 -20 19 -11 15 13 19 59 5
59 -5 0 -13 -6 -19 -13z"/>
<path d="M4845 1391 c-8 -14 23 -63 40 -63 18 1 15 17 -8 46 -17 21 -26 26
-32 17z"/>
<path d="M8851 1504 c0 -11 3 -14 6 -6 3 7 2 16 -1 19 -3 4 -6 -2 -5 -13z"/>
<path d="M8886 1297 c3 -10 9 -15 12 -12 3 3 0 11 -7 18 -10 9 -11 8 -5 -6z"/>
<path d="M3004 516 c-92 -40 -120 -188 -47 -245 32 -26 69 -27 110 -1 l33 19
-3 111 c-3 134 -15 150 -93 116z"/>
<path d="M4025 512 c-48 -30 -91 -111 -67 -126 9 -6 152 60 186 87 19 14 19
15 -5 30 -41 27 -80 30 -114 9z"/>
<path d="M7535 515 c-40 -14 -85 -55 -85 -79 0 -7 11 -23 25 -36 19 -18 37
-24 73 -24 l47 -1 1 67 c2 81 -7 91 -61 73z"/>
<path d="M4964 510 c-68 -27 -102 -148 -58 -207 44 -58 110 -55 152 7 20 30
23 44 20 94 -4 51 -9 63 -36 87 -34 31 -44 33 -78 19z"/>
<path d="M7310 3552 c0 -5 9 -17 20 -27 16 -14 20 -15 20 -4 0 16 -19 39 -32
39 -4 0 -8 -4 -8 -8z"/>
<path d="M4654 3527 c-7 -20 1 -47 16 -47 12 0 13 30 0 50 -8 12 -10 12 -16
-3z"/>
<path d="M6680 3516 c0 -8 7 -17 16 -20 13 -5 15 -15 10 -45 -6 -38 -6 -39 18
-28 13 7 21 16 18 22 -4 5 -7 12 -8 15 0 3 -4 13 -7 23 -4 9 -9 24 -12 32 -6
19 -35 20 -35 1z"/>
<path d="M6754 3507 c-8 -21 2 -35 16 -21 5 5 6 15 0 24 -8 12 -10 12 -16 -3z"/>
<path d="M9840 3510 c0 -5 9 -10 21 -10 11 0 17 5 14 10 -3 6 -13 10 -21 10
-8 0 -14 -4 -14 -10z"/>
<path d="M3600 3502 c0 -19 19 -52 30 -52 16 0 12 16 -10 41 -11 14 -19 18
-20 11z"/>
<path d="M3867 3496 c-4 -10 -5 -21 -2 -24 9 -9 17 6 13 25 -3 17 -4 17 -11
-1z"/>
<path d="M4579 3496 c7 -8 9 -25 6 -39 -4 -14 -2 -28 4 -31 7 -5 11 2 11 18 0
14 5 28 12 32 7 5 5 11 -7 21 -25 17 -41 17 -26 -1z"/>
<path d="M4490 3493 c0 -5 9 -19 20 -33 13 -16 20 -20 19 -10 0 8 -6 23 -13
33 -14 18 -26 22 -26 10z"/>
<path d="M6586 3471 c-9 -16 -16 -38 -15 -48 0 -10 9 2 20 26 22 50 18 68 -5
22z"/>
<path d="M9890 3459 c-7 -13 -22 -34 -33 -46 -21 -24 -17 -27 21 -17 13 4 22
14 22 25 0 22 36 27 43 7 2 -7 7 -10 11 -7 3 3 -7 18 -23 33 l-29 28 -12 -23z"/>
<path d="M1443 3399 c-2 -58 0 -69 14 -69 14 0 15 9 9 62 -9 87 -21 90 -23 7z"/>
<path d="M7387 3434 c-4 -4 -7 -14 -7 -23 0 -11 3 -12 11 -4 6 6 10 16 7 23
-2 6 -7 8 -11 4z"/>
<path d="M408 3403 c7 -3 16 -2 19 1 4 3 -2 6 -13 5 -11 0 -14 -3 -6 -6z"/>
<path d="M4605 3400 c-3 -5 -1 -10 4 -10 6 0 11 5 11 10 0 6 -2 10 -4 10 -3 0
-8 -4 -11 -10z"/>
<path d="M8697 3403 c-12 -11 -8 -65 4 -58 6 4 8 13 5 21 -3 7 -1 16 4 19 6 4
10 10 10 16 0 10 -14 12 -23 2z"/>
<path d="M9960 3398 c0 -18 27 -44 37 -34 4 4 -3 16 -15 29 -18 17 -22 18 -22
5z"/>
<path d="M3565 3390 c-3 -5 -2 -10 4 -10 5 0 13 5 16 10 3 6 2 10 -4 10 -5 0
-13 -4 -16 -10z"/>
<path d="M3630 3335 c-10 -13 -9 -15 9 -15 11 0 21 4 21 9 0 18 -18 21 -30 6z"/>
<path d="M3592 3320 c0 -14 2 -19 5 -12 2 6 2 18 0 25 -3 6 -5 1 -5 -13z"/>
<path d="M1965 3320 c-7 -12 3 -50 13 -50 4 0 7 14 7 30 0 30 -8 39 -20 20z"/>
<path d="M9770 3260 c0 -5 5 -10 10 -10 6 0 10 5 10 10 0 6 -4 10 -10 10 -5 0
-10 -4 -10 -10z"/>
<path d="M2035 3238 c4 -13 9 -38 12 -56 3 -18 9 -35 14 -38 5 -3 9 -11 9 -17
0 -8 -14 -11 -43 -9 -51 4 -79 -17 -57 -43 15 -18 30 -11 30 16 0 12 7 19 19
19 22 0 45 -25 37 -39 -9 -14 15 -61 31 -61 16 0 16 5 2 32 -7 13 -7 24 -1 30
6 6 17 -3 32 -27 12 -20 25 -34 27 -31 5 5 0 15 -42 72 -22 31 -34 79 -24 95
8 12 11 12 19 -1 5 -8 10 -25 10 -36 0 -12 6 -27 14 -33 29 -24 -1 60 -33 93
-17 18 -31 37 -31 44 0 7 -7 12 -16 12 -12 0 -15 -5 -9 -22z"/>
<path d="M8033 3235 c-3 -9 -2 -19 1 -23 8 -8 38 10 44 26 6 18 -38 14 -45 -3z"/>
<path d="M2457 3226 c-3 -8 2 -16 14 -19 10 -3 23 -16 28 -29 l10 -23 0 26 c1
14 -7 33 -17 42 -23 21 -28 21 -35 3z"/>
<path d="M9770 3170 c0 -29 2 -51 4 -49 8 8 10 88 3 95 -4 4 -7 -17 -7 -46z"/>
<path d="M3097 3204 c-9 -10 2 -24 19 -24 8 0 14 7 14 15 0 15 -21 21 -33 9z"/>
<path d="M3220 3205 c0 -10 43 -55 53 -55 5 0 7 12 5 28 -2 21 -9 28 -30 30
-16 2 -28 0 -28 -3z"/>
<path d="M20 3171 c-5 -11 -10 -27 -10 -36 0 -14 4 -13 24 6 13 13 22 29 19
36 -7 19 -21 16 -33 -6z"/>
<path d="M5800 3185 c0 -3 11 -18 25 -33 23 -25 25 -25 25 -6 0 11 -5 25 -12
32 -12 12 -38 17 -38 7z"/>
<path d="M5699 3179 c0 -2 -2 -13 -4 -23 -2 -10 -9 -22 -15 -26 -6 -4 -8 -14
-4 -23 5 -15 9 -15 30 5 13 13 24 28 24 34 0 11 -29 41 -31 33z"/>
<path d="M1441 3163 c-2 -29 20 -63 39 -63 11 0 20 -5 20 -12 0 -6 3 -8 7 -5
3 4 -5 17 -18 30 -13 13 -29 32 -36 43 -6 10 -12 14 -12 7z"/>
<path d="M8595 3160 c-6 -10 15 -50 28 -50 4 0 4 8 -1 18 -5 9 -7 23 -5 30 5
14 -13 17 -22 2z"/>
<path d="M7881 3146 c-9 -11 -8 -18 4 -30 22 -22 25 -20 25 14 0 32 -11 38
-29 16z"/>
<path d="M3183 3139 c-13 -5 -23 -17 -23 -28 0 -19 1 -19 30 -3 43 25 37 48
-7 31z"/>
<path d="M6990 3123 c0 -25 24 -91 38 -105 18 -18 16 14 -3 38 -8 10 -15 31
-15 46 0 15 -4 30 -10 33 -5 3 -10 -2 -10 -12z"/>
<path d="M1540 3101 c0 -17 5 -31 10 -31 6 0 10 11 10 24 0 14 -4 28 -10 31
-6 4 -10 -7 -10 -24z"/>
<path d="M4604 3105 c-7 -28 0 -55 16 -55 5 0 9 10 7 21 -3 30 19 35 26 7 5
-17 9 -20 18 -11 9 9 8 18 -5 37 -22 34 -54 34 -62 1z"/>
<path d="M356 3113 c-9 -10 -7 -63 3 -63 11 0 20 59 11 65 -4 3 -10 2 -14 -2z"/>
<path d="M7988 3102 c-18 -3 -26 -32 -9 -32 10 0 36 29 30 33 -2 2 -12 2 -21
-1z"/>
<path d="M407 3080 c6 -21 21 -35 29 -27 6 6 -18 47 -27 47 -4 0 -5 -9 -2 -20z"/>
<path d="M3017 3050 c-5 -42 -3 -54 13 -70 11 -11 20 -27 20 -35 0 -8 5 -15
10 -15 21 0 9 45 -17 66 -27 21 -27 23 -10 42 15 16 16 24 7 41 -6 12 -12 21
-14 21 -2 0 -6 -23 -9 -50z"/>
<path d="M7808 3089 c-18 -10 -24 -40 -11 -52 3 -4 15 5 25 20 27 42 22 54
-14 32z"/>
<path d="M2150 3083 c1 -5 15 -24 31 -43 28 -31 30 -32 24 -10 -11 38 -56 81
-55 53z"/>
<path d="M9894 3079 c-3 -6 -1 -16 5 -22 6 -6 11 -19 11 -28 0 -23 19 -34 32
-21 7 7 4 22 -12 46 -24 40 -26 41 -36 25z"/>
<path d="M3250 3071 c0 -5 7 -15 17 -22 15 -13 15 -12 4 9 -12 23 -21 28 -21
13z"/>
<path d="M4370 3080 c-7 -31 -6 -39 6 -44 20 -8 25 9 9 30 -8 10 -15 17 -15
14z"/>
<path d="M8060 3051 c0 -11 5 -23 10 -26 6 -4 10 5 10 19 0 14 -4 26 -10 26
-5 0 -10 -9 -10 -19z"/>
<path d="M5650 3039 c0 -11 5 -17 10 -14 6 3 10 13 10 21 0 8 -4 14 -10 14 -5
0 -10 -9 -10 -21z"/>
<path d="M7177 3023 c-11 -13 -17 -26 -14 -29 2 -3 12 7 21 22 23 33 17 39 -7
7z"/>
<path d="M6983 2972 c-11 -15 -23 -37 -27 -50 -4 -12 -12 -22 -17 -22 -6 0 -8
-4 -5 -9 7 -11 41 -7 42 5 1 13 22 65 34 87 16 27 -4 20 -27 -11z"/>
<path d="M2547 2933 c-2 -5 9 -18 24 -31 30 -24 37 -16 19 19 -11 19 -35 26
-43 12z"/>
<path d="M2436 2884 c-9 -25 -7 -64 4 -64 6 0 10 8 10 18 0 9 3 27 6 40 7 25
-11 31 -20 6z"/>
<path d="M2496 2865 c4 -8 8 -15 10 -15 2 0 4 7 4 15 0 8 -4 15 -10 15 -5 0
-7 -7 -4 -15z"/>
<path d="M400 2830 c0 -5 5 -10 10 -10 6 0 19 -18 29 -40 18 -41 31 -43 31 -4
0 12 -12 32 -26 43 -29 23 -44 27 -44 11z"/>
<path d="M1031 2790 c-22 -39 -22 -40 -3 -40 13 0 24 10 31 30 5 17 15 30 20
30 6 0 11 5 11 10 0 26 -38 6 -59 -30z"/>
<path d="M9746 2764 c-3 -8 -1 -25 6 -37 6 -12 11 -37 10 -57 -1 -33 0 -34 13
-16 18 24 19 52 4 95 -12 34 -24 40 -33 15z"/>
<path d="M851 2761 c-11 -7 -3 -14 29 -30 51 -24 73 -14 41 18 -22 22 -47 26
-70 12z"/>
<path d="M7461 2736 c-8 -10 -9 -16 -1 -21 5 -3 13 1 16 10 9 22 -1 29 -15 11z"/>
<path d="M466 2717 c3 -10 9 -15 12 -12 3 3 0 11 -7 18 -10 9 -11 8 -5 -6z"/>
<path d="M1095 2720 c-3 -5 2 -10 13 -10 21 0 52 -31 75 -75 l16 -30 1 33 c0
55 -82 119 -105 82z"/>
<path d="M2754 2695 c24 -18 39 -20 34 -2 -3 6 -15 13 -29 15 -23 2 -23 2 -5
-13z"/>
<path d="M2661 2684 c0 -11 3 -14 6 -6 3 7 2 16 -1 19 -3 4 -6 -2 -5 -13z"/>
<path d="M7487 2682 c-18 -20 -22 -42 -9 -42 12 0 42 34 42 48 0 17 -15 15
-33 -6z"/>
<path d="M2391 2649 c-13 -38 -15 -99 -2 -99 8 0 23 121 16 128 -1 2 -8 -11
-14 -29z"/>
<path d="M2536 2658 c3 -13 10 -30 15 -38 7 -13 8 -13 9 0 0 27 -12 60 -22 60
-5 0 -6 -10 -2 -22z"/>
<path d="M7746 2655 c9 -38 12 -42 20 -21 4 11 0 24 -10 34 -16 16 -17 15 -10
-13z"/>
<path d="M7626 2654 c-9 -22 -8 -26 5 -19 5 4 19 -1 30 -11 16 -15 19 -15 19
-1 0 28 -12 47 -30 47 -10 0 -21 -7 -24 -16z"/>
<path d="M7360 2614 c0 -8 5 -12 10 -9 6 3 10 10 10 16 0 5 -4 9 -10 9 -5 0
-10 -7 -10 -16z"/>
<path d="M7607 2613 c-4 -3 -7 -11 -7 -17 0 -6 5 -5 12 2 6 6 9 14 7 17 -3 3
-9 2 -12 -2z"/>
<path d="M388 2569 c-10 -5 -18 -20 -18 -32 l0 -22 18 23 c15 20 22 22 44 13
15 -5 31 -18 37 -28 8 -15 10 -15 11 -2 0 15 -51 59 -67 59 -4 0 -16 -5 -25
-11z"/>
<path d="M9825 2516 c-22 -29 -24 -38 -15 -55 6 -12 14 -21 19 -21 8 0 34 100
27 107 -2 2 -16 -11 -31 -31z"/>
<path d="M1360 2529 c0 -6 8 -33 17 -59 16 -45 16 -49 0 -65 -23 -22 -22 -42
1 -22 10 10 24 17 30 17 16 0 32 -33 32 -65 0 -14 5 -36 11 -47 6 -12 11 -39
11 -61 -1 -51 17 -36 25 20 4 31 -1 52 -26 100 -17 34 -35 64 -40 68 -6 3 -8
12 -5 20 3 8 -4 26 -15 41 -12 15 -21 35 -21 45 0 11 -4 19 -10 19 -5 0 -10
-5 -10 -11z"/>
<path d="M9902 2483 c-31 -91 -31 -93 -16 -93 30 0 52 37 52 84 -1 56 -18 60
-36 9z"/>
<path d="M2390 2476 c0 -8 5 -18 10 -21 6 -3 10 1 10 9 0 8 -4 18 -10 21 -5 3
-10 -1 -10 -9z"/>
<path d="M7431 2463 c-1 -12 4 -25 9 -28 12 -7 12 2 0 30 -8 19 -9 19 -9 -2z"/>
<path d="M1215 2460 c3 -5 8 -10 11 -10 2 0 4 5 4 10 0 6 -5 10 -11 10 -5 0
-7 -4 -4 -10z"/>
<path d="M500 2435 c0 -8 4 -15 10 -15 5 0 7 7 4 15 -4 8 -8 15 -10 15 -2 0
-4 -7 -4 -15z"/>
<path d="M2531 2424 c0 -11 3 -14 6 -6 3 7 2 16 -1 19 -3 4 -6 -2 -5 -13z"/>
<path d="M2480 2401 c0 -5 5 -13 10 -16 6 -3 10 -2 10 4 0 5 -4 13 -10 16 -5
3 -10 2 -10 -4z"/>
<path d="M484 2345 c-3 -20 -4 -50 0 -67 5 -24 2 -34 -14 -45 -27 -19 -26 -66
2 -111 26 -42 36 -27 13 18 -17 33 -13 50 11 50 12 0 13 7 7 38 -4 20 -7 63
-6 95 2 65 -3 74 -13 22z"/>
<path d="M9830 2360 c0 -5 5 -10 11 -10 5 0 7 5 4 10 -3 6 -8 10 -11 10 -2 0
-4 -4 -4 -10z"/>
<path d="M6154 2305 c-19 -15 -19 -15 1 -30 39 -29 45 -36 45 -60 0 -31 16
-33 24 -2 12 44 6 76 -16 91 -28 20 -30 20 -54 1z"/>
<path d="M580 2271 c0 -16 6 -34 14 -40 8 -7 18 -26 21 -42 10 -44 24 -26 15
20 -7 37 -34 91 -45 91 -3 0 -5 -13 -5 -29z"/>
<path d="M1217 2294 c-17 -17 6 -144 27 -144 6 0 -5 123 -13 138 -4 7 -10 9
-14 6z"/>
<path d="M1331 2253 c1 -53 6 -49 11 10 2 20 0 37 -4 37 -4 0 -8 -21 -7 -47z"/>
<path d="M9800 2286 c0 -9 5 -16 10 -16 6 0 10 4 10 9 0 6 -4 13 -10 16 -5 3
-10 -1 -10 -9z"/>
<path d="M5316 2271 c-23 -25 -13 -45 14 -28 20 12 28 47 12 47 -5 0 -17 -9
-26 -19z"/>
<path d="M9107 2264 c-23 -13 -27 -20 -26 -57 1 -26 3 -33 6 -17 6 37 29 51
59 38 27 -13 39 -6 31 16 -11 27 -40 35 -70 20z"/>
<path d="M9855 2250 c-10 -11 -24 -20 -32 -20 -7 0 -13 -9 -13 -20 0 -29 34
-25 59 6 35 45 23 75 -14 34z"/>
<path d="M2421 2198 c24 -32 31 -33 23 -1 -3 12 -14 23 -25 26 -18 5 -18 4 2
-25z"/>
<path d="M9566 2157 c-19 -14 -19 -15 7 -41 18 -18 27 -38 27 -58 0 -23 3 -29
11 -21 5 5 9 37 7 69 -3 64 -17 77 -52 51z"/>
<path d="M1131 2144 c24 -55 55 -114 61 -114 12 0 -3 63 -21 89 -17 24 -47 43
-40 25z"/>
<path d="M5278 2128 c-20 -20 -24 -73 -8 -83 7 -4 9 2 4 19 -4 17 0 35 11 52
20 31 16 37 -7 12z"/>
<path d="M1838 2102 c-19 -4 -25 -37 -9 -47 10 -6 35 31 29 43 -2 4 -11 6 -20
4z"/>
<path d="M1973 2098 c0 -7 -4 -21 -8 -30 -4 -10 -3 -18 3 -18 6 0 15 14 21 30
8 23 7 30 -3 30 -7 0 -13 -6 -13 -12z"/>
<path d="M9190 2071 c0 -17 5 -33 10 -36 6 -3 10 1 10 9 0 9 5 16 10 16 7 0 7
6 0 20 -16 29 -30 25 -30 -9z"/>
<path d="M1730 2046 c0 -23 4 -47 9 -55 6 -10 9 0 9 32 0 25 3 50 6 55 3 5 -1
9 -9 9 -11 0 -15 -12 -15 -41z"/>
<path d="M8112 2070 c-6 -11 -12 -28 -11 -37 0 -12 4 -8 11 10 5 15 14 27 19
27 5 0 9 5 9 10 0 16 -14 11 -28 -10z"/>
<path d="M9464 2052 c-21 -18 -90 -160 -81 -168 3 -3 19 23 37 58 18 35 41 78
52 96 22 36 21 39 -8 14z"/>
<path d="M9307 2023 c-16 -26 -16 -81 1 -118 l19 -40 7 69 c5 54 4 73 -7 84
-8 7 -17 10 -20 5z"/>
<path d="M8967 1973 c8 -52 13 -54 13 -5 0 23 -4 42 -9 42 -6 0 -7 -17 -4 -37z"/>
<path d="M4745 1969 c-7 -33 -3 -45 14 -34 13 8 15 65 2 65 -5 0 -12 -14 -16
-31z"/>
<path d="M2055 1981 c-6 -11 9 -23 19 -14 9 9 7 23 -3 23 -6 0 -12 -4 -16 -9z"/>
<path d="M5319 1933 c-11 -29 -6 -90 9 -105 4 -4 8 9 8 30 0 20 4 52 8 70 11
40 -10 44 -25 5z"/>
<path d="M4970 1901 c-5 -11 -7 -26 -5 -34 3 -7 -1 -20 -10 -27 -18 -15 -21
-105 -4 -116 7 -4 10 4 7 22 -2 21 1 29 12 29 24 0 41 31 34 61 -5 20 -2 31
11 40 10 7 15 20 12 29 -9 21 -44 19 -57 -4z"/>
<path d="M8962 1895 c0 -16 2 -22 5 -12 2 9 2 23 0 30 -3 6 -5 -1 -5 -18z"/>
<path d="M9362 1853 c-11 -22 -24 -73 -18 -73 2 0 11 20 19 45 16 46 15 59 -1
28z"/>
<path d="M9161 1827 c-8 -11 -5 -14 19 -14 18 0 30 6 30 14 0 7 -8 13 -19 13
-10 0 -24 -6 -30 -13z"/>
<path d="M5016 1776 c-14 -19 -26 -45 -25 -58 0 -19 3 -17 18 14 10 21 26 47
36 58 10 11 13 20 8 20 -6 0 -22 -15 -37 -34z"/>
<path d="M4776 1774 c-7 -26 -1 -44 15 -44 12 0 12 57 0 64 -5 3 -12 -6 -15
-20z"/>
<path d="M9027 1782 c-10 -10 -17 -26 -17 -35 0 -11 -7 -16 -22 -14 -15 1 -23
-3 -23 -13 0 -10 8 -14 21 -12 17 2 25 -6 38 -39 9 -23 20 -39 23 -35 6 5 5
157 -1 163 -2 2 -10 -5 -19 -15z"/>
<path d="M930 1776 c-7 -9 -9 -23 -5 -33 8 -17 8 -17 12 0 3 9 8 17 13 17 10
0 -7 -56 -26 -83 -10 -16 -8 -24 12 -55 28 -40 40 -79 29 -90 -4 -4 -10 -1
-12 6 -3 6 -11 12 -19 12 -10 0 -14 -14 -14 -51 0 -42 5 -56 24 -74 18 -17 26
-19 30 -10 3 8 -2 19 -10 25 -20 17 -18 43 6 63 26 22 25 51 -1 94 -18 28 -20
38 -10 56 6 12 12 47 14 77 2 43 -1 55 -14 58 -9 1 -22 -4 -29 -12z"/>
<path d="M9181 1762 c-30 -42 -26 -50 5 -12 15 17 24 33 21 36 -2 3 -14 -8
-26 -24z"/>
<path d="M1305 1770 c3 -5 11 -10 16 -10 6 0 7 5 4 10 -3 6 -11 10 -16 10 -6
0 -7 -4 -4 -10z"/>
<path d="M5152 1751 c-7 -21 -8 -40 -2 -56 12 -30 3 -56 -16 -48 -18 7 -18
-11 0 -26 38 -32 76 98 43 144 -13 17 -15 16 -25 -14z"/>
<path d="M9593 1745 c-3 -9 -3 -18 -1 -21 3 -3 8 4 11 16 6 23 -1 27 -10 5z"/>
<path d="M9142 1693 c-9 -15 -5 -22 19 -35 27 -16 29 -16 29 1 0 10 -9 26 -19
35 -18 17 -20 17 -29 -1z"/>
<path d="M4957 1693 c-5 -7 -1 -25 7 -40 16 -29 19 -16 7 27 -5 16 -9 21 -14
13z"/>
<path d="M4815 1664 c-10 -16 -13 -30 -7 -36 6 -6 14 2 22 22 16 40 8 48 -15
14z"/>
<path d="M5395 1592 l-18 -27 24 20 c13 11 25 21 27 21 2 1 -1 5 -6 8 -6 3
-18 -7 -27 -22z"/>
<path d="M9600 1588 c-21 -28 -27 -63 -14 -77 2 -2 15 4 29 13 20 13 25 25 25
56 0 48 -9 50 -40 8z"/>
<path d="M4957 1528 c-3 -12 -2 -29 3 -37 7 -12 9 -6 10 22 0 42 -5 48 -13 15z"/>
<path d="M1094 1465 c-11 -27 1 -39 19 -21 9 10 17 22 17 27 0 15 -30 10 -36
-6z"/>
<path d="M8960 1449 c0 -5 5 -7 10 -4 6 3 10 8 10 11 0 2 -4 4 -10 4 -5 0 -10
-5 -10 -11z"/>
<path d="M9313 1426 c-35 -17 -27 -26 13 -15 19 6 50 7 67 4 21 -5 29 -4 22 3
-15 15 -77 20 -102 8z"/>
<path d="M1127 1283 c-4 -3 -7 -11 -7 -17 0 -6 5 -5 12 2 6 6 9 14 7 17 -3 3
-9 2 -12 -2z"/>
</g>
</svg>
